<svg
   xmlns:dc="http://purl.org/dc/elements/1.1/"
   xmlns:cc="http://creativecommons.org/ns#"
   xmlns:rdf="http://www.w3.org/1999/02/22-rdf-syntax-ns#"
   xmlns:svg="http://www.w3.org/2000/svg"
   xmlns="http://www.w3.org/2000/svg"
   xmlns:xlink="http://www.w3.org/1999/xlink"
   xmlns:sodipodi="http://sodipodi.sourceforge.net/DTD/sodipodi-0.dtd"
   xmlns:inkscape="http://www.inkscape.org/namespaces/inkscape"
   width="294.35104mm"
   height="185.49252mm"
   viewBox="0 0 294.35104 185.49252"
   version="1.1"
   id="svg8"
   inkscape:version="0.92.3 (2405546, 2018-03-11)"
   sodipodi:docname="Fly.svg">
  <title
     id="title36">Fly</title>
  <defs
     id="defs2">
    <linearGradient
       inkscape:collect="always"
       id="linearGradient947">
      <stop
         style="stop-color:#ffffff;stop-opacity:1;"
         offset="0"
         id="stop943" />
      <stop
         style="stop-color:#ffffff;stop-opacity:0;"
         offset="1"
         id="stop945" />
    </linearGradient>
    <linearGradient
       inkscape:collect="always"
       id="linearGradient922">
      <stop
         style="stop-color:#ffffff;stop-opacity:1;"
         offset="0"
         id="stop918" />
      <stop
         style="stop-color:#ffffff;stop-opacity:0;"
         offset="1"
         id="stop920" />
    </linearGradient>
    <radialGradient
       inkscape:collect="always"
       xlink:href="#linearGradient922"
       id="radialGradient924"
       cx="61.251825"
       cy="41.820726"
       fx="61.251825"
       fy="41.820726"
       r="58.687978"
       gradientTransform="matrix(1,0,0,0.67613294,0,13.544355)"
       gradientUnits="userSpaceOnUse" />
    <radialGradient
       inkscape:collect="always"
       xlink:href="#linearGradient947"
       id="radialGradient949"
       cx="231.5643"
       cy="96.845771"
       fx="231.5643"
       fy="96.845771"
       r="59.626777"
       gradientTransform="matrix(1,0,0,0.99894263,0,0.10240206)"
       gradientUnits="userSpaceOnUse" />
  </defs>
  <sodipodi:namedview
     id="base"
     pagecolor="#ffffff"
     bordercolor="#666666"
     borderopacity="1.0"
     inkscape:pageopacity="0.0"
     inkscape:pageshadow="2"
     inkscape:zoom="0.49497475"
     inkscape:cx="439.05587"
     inkscape:cy="336.88823"
     inkscape:document-units="mm"
     inkscape:current-layer="layer2"
     showgrid="false"
     fit-margin-top="0"
     fit-margin-left="0"
     fit-margin-right="0"
     fit-margin-bottom="0"
     inkscape:window-width="1600"
     inkscape:window-height="845"
     inkscape:window-x="0"
     inkscape:window-y="27"
     inkscape:window-maximized="1" />
  <metadata
     id="metadata5">
    <rdf:RDF>
      <cc:Work
         rdf:about="">
        <dc:format>image/svg+xml</dc:format>
        <dc:type
           rdf:resource="http://purl.org/dc/dcmitype/StillImage" />
        <dc:title>Fly</dc:title>
        <dc:date>2020</dc:date>
        <dc:creator>
          <cc:Agent>
            <dc:title>Doodleguy</dc:title>
          </cc:Agent>
        </dc:creator>
        <dc:rights>
          <cc:Agent>
            <dc:title>Public domain</dc:title>
          </cc:Agent>
        </dc:rights>
        <cc:license
           rdf:resource="http://creativecommons.org/publicdomain/zero/1.0/" />
      </cc:Work>
      <cc:License
         rdf:about="http://creativecommons.org/publicdomain/zero/1.0/">
        <cc:permits
           rdf:resource="http://creativecommons.org/ns#Reproduction" />
        <cc:permits
           rdf:resource="http://creativecommons.org/ns#Distribution" />
        <cc:permits
           rdf:resource="http://creativecommons.org/ns#DerivativeWorks" />
      </cc:License>
    </rdf:RDF>
  </metadata>
  <g
     inkscape:groupmode="layer"
     id="layer2"
     inkscape:label="bund">
    <path
       style="opacity:1;vector-effect:none;fill:#004455;fill-opacity:1;stroke:none;stroke-width:0.06809416;stroke-linecap:square;stroke-linejoin:miter;stroke-miterlimit:4;stroke-dasharray:none;stroke-dashoffset:0;stroke-opacity:1"
       d="m 370.61761,247.9983 c -14.0527,0.29962 -27.70051,4.12143 -41.76823,4.19274 -17.14175,0.9134 -34.40277,0.66012 -51.49071,1.60393 -19.10985,5.4631 -36.07431,15.97653 -53.40401,25.34312 -7.5883,3.81032 -14.82008,8.33328 -22.02427,12.80552 -4.22314,4.09692 -10.11793,5.24458 -14.66506,8.94097 -6.16384,4.37427 -12.8562,7.83728 -19.64577,11.04508 -1.87385,0.97178 -3.3529,3.07939 -2.22656,5.04465 -1.2793,5.89272 -6.93012,9.79787 -9.30038,15.31584 -6.29779,10.09151 -8.82212,21.82777 -9.89744,33.53181 -2.58464,23.91504 -4.07581,48.08628 -2.62417,72.11914 3.88232,20.6156 11.86824,41.69582 27.88784,55.9361 4.75574,3.67009 10.57177,-0.77362 15.47845,-1.75658 4.60624,-0.93514 10.23262,-5.53731 14.56898,-1.49397 1.66014,1.17633 4.72671,3.54798 2.23912,5.57198 -3.74811,6.51974 -13.20579,4.31664 -17.45954,10.05162 0.1857,4.92728 5.00504,8.39827 8.08872,11.77735 15.15949,12.8893 32.17314,23.46585 49.89258,32.4428 7.55398,3.25185 15.11093,7.53227 23.40681,8.2938 6.02195,-3.05594 7.92594,-10.49924 11.65457,-15.69475 6.06154,-8.54319 11.97795,-17.39393 19.2634,-24.93164 4.15573,-1.93442 9.64988,1.71549 10.93052,5.73242 -4.4725,5.70162 -11.76032,8.85679 -15.78682,15.10742 -4.22171,6.48872 -9.44195,12.74217 -11.83873,20.16602 2.11088,3.68958 7.57883,2.33717 11.07282,1.98521 18.33975,-3.59231 35.28733,-11.76767 52.82883,-17.89103 6.76255,-3.48902 14.62083,-2.75549 21.482,-6.0473 7.16202,-3.28045 16.49897,-5.9702 19.58147,-14.03181 -0.97887,-11.19939 -4.45247,-22.18807 -3.39884,-33.55582 -0.9314,-3.45047 -5.18932,-5.54903 -7.74596,-8.10378 -6.02066,-3.9133 -11.42312,-8.97247 -14.01982,-15.83901 -8.84353,-19.33136 -17.1738,-39.6122 -17.73019,-61.16908 -1.7009,-25.12208 2.19337,-51.91747 17.9346,-72.36154 6.40047,-9.26128 12.02902,-19.84435 22.31407,-25.41063 10.03297,-6.69628 20.59878,-12.96585 32.59412,-15.32657 6.22895,-2.18769 13.44825,-2.70367 18.88572,-6.61946 1.01841,-2.64531 -2.99687,-4.24712 -3.79743,-6.46344 -3.80619,-6.31928 -8.65515,-11.98945 -15.12339,-15.71103 -9.82715,-6.81924 -21.30858,-10.58691 -32.17432,-15.35901 -4.661,0.25298 -9.32199,0.50596 -13.98298,0.75893 z"
       id="path70"
       inkscape:connector-curvature="0"
       transform="scale(0.26458333)" />
    <path
       style="opacity:1;vector-effect:none;fill:#004455;fill-opacity:1;stroke:none;stroke-width:0.03404708;stroke-linecap:square;stroke-linejoin:miter;stroke-miterlimit:4;stroke-dasharray:none;stroke-dashoffset:0;stroke-opacity:1"
       d="m 372.22001,72.499861 c -7.15992,0.200965 -13.94236,3.115031 -20.27288,6.23803 -1.54615,1.088238 -4.37356,1.96091 -4.34416,4.236998 1.4436,3.14694 4.41591,5.356874 6.58605,8.004304 14.69083,15.775937 30.65974,30.558967 42.78825,48.509367 8.48846,11.6835 17.33553,23.17297 24.2041,35.92495 5.12412,9.00758 12.05682,16.82626 16.96515,25.97354 5.44244,9.23007 9.87893,18.98603 13.65231,28.99681 5.41273,11.73616 8.83506,24.25428 11.09876,36.94641 1.03681,4.90461 1.56381,9.95469 2.86874,14.78106 1.94743,2.04394 5.22871,1.57899 7.79459,2.04483 18.4899,1.08997 37.30579,2.35807 54.7926,8.98405 6.83065,2.68905 14.08946,4.15493 20.68734,7.45177 14.0312,6.48377 28.38931,12.48169 41.34773,21.00936 16.8377,10.43073 33.968,20.38151 50.71273,30.9651 10.88289,6.66811 22.11242,12.95999 31.61619,21.586 4.95507,4.04919 9.18295,9.02829 14.51925,12.58849 1.68783,1.217 4.23666,0.35516 4.44823,-1.82547 0.62296,-4.12538 -1.15659,-8.19288 -2.09402,-12.15123 -1.99142,-7.54102 -5.66494,-14.46345 -8.28125,-21.76409 -0.54438,-2.60578 -1.01994,-5.25956 -2.4442,-7.5844 -1.74689,-2.95968 -3.45185,-6.56843 -6.78641,-7.98131 -3.06634,-0.21759 -5.86126,1.70462 -8.53097,2.97712 -3.86365,1.80203 -4.4813,6.90033 -8.33636,8.61398 -2.70424,0.52639 -4.34655,-2.54633 -5.31529,-4.60519 -3.26057,-8.30089 -1.52224,-17.60216 -4.39732,-26.02121 -1.5907,-7.47685 -1.47898,-15.2087 -2.9287,-22.72561 -1.03399,-6.20235 -0.87737,-12.59283 -2.37334,-18.70993 -2.04335,-5.05211 -6.27825,-8.80408 -9.07452,-13.42552 -13.01843,-18.67852 -24.45234,-38.41469 -37.74467,-56.90442 -6.47001,-8.48923 -13.01643,-16.94598 -18.4167,-26.17295 -6.39178,-9.78967 -13.95255,-18.81126 -22.67946,-26.60605 -10.38584,-9.82181 -20.64801,-19.82813 -32.07645,-28.45152 -13.23914,-10.60583 -25.40067,-23.35926 -41.58561,-29.499218 -8.13537,-2.950066 -16.21791,-6.029585 -24.15198,-9.485828 -15.32344,-6.021532 -31.86799,-7.869336 -48.11588,-9.657952 -11.35134,-0.990277 -22.72833,-2.220609 -34.13185,-2.260271 z"
       id="path72"
       inkscape:connector-curvature="0"
       transform="scale(0.26458333)" />
    <path
       style="opacity:1;vector-effect:none;fill:#216778;fill-opacity:1;stroke:none;stroke-width:0.04814985;stroke-linecap:square;stroke-linejoin:miter;stroke-miterlimit:4;stroke-dasharray:none;stroke-dashoffset:0;stroke-opacity:1"
       d="m 463.59427,292.43767 c -6.92854,0.0322 -13.96453,0.26479 -20.61047,2.31723 -11.00032,1.14869 -22.00484,3.30439 -32.45214,6.99412 -13.48087,5.31465 -26.45804,12.90224 -36.30248,23.66896 -6.33137,8.04521 -12.1446,16.57782 -17.07086,25.55428 -3.56,8.65337 -5.46147,17.9397 -7.10463,27.12394 -1.9947,14.56689 -0.31199,29.33818 1.388,43.84717 2.35147,11.79712 6.75176,23.14106 11.79826,34.0305 2.21315,3.9127 4.08624,8.50821 7.81586,11.21131 2.10304,0.22774 2.20578,-2.99925 2.27778,-4.47664 -1.57769,-8.48384 -3.63102,-16.92304 -3.98212,-25.59601 -1.4215,-22.55371 1.3521,-45.14735 4.98026,-67.36627 1.97725,-5.87345 3.62911,-11.8798 5.82486,-17.68586 3.75589,-7.36833 10.41577,-12.85725 16.97773,-17.67575 7.68652,-4.61629 16.60796,-6.66445 25.20251,-8.9148 8.62874,-1.94437 17.52325,-1.25933 26.26299,-0.7438 9.18374,-1.33277 18.36527,-2.8705 27.63224,-3.6803 4.2887,-0.34551 8.71748,-1.7675 12.64734,0.68973 8.26854,3.07058 16.86354,6.68595 22.30745,13.99275 10.90759,12.88581 12.31026,30.54429 13.33838,46.68158 0.58733,16.19221 1.07148,32.45509 -0.092,48.62986 -1.8628,14.43118 -4.26104,28.84378 -7.46072,43.03653 -3.36119,12.67828 -10.12048,24.11852 -16.19832,35.6436 -2.56671,3.99868 -5.70078,8.11116 -9.98082,10.33759 -7.76325,2.75367 -15.8791,4.58877 -23.77113,6.90238 -14.3184,1.28942 -28.12926,-3.91186 -41.35312,-8.72308 -9.89128,-3.7339 -18.92802,-9.27179 -27.98241,-14.62683 -1.6106,-1.1081 -4.95185,-0.80307 -4.45691,1.82301 0.74791,17.24965 11.41484,32.15946 22.98024,44.17915 7.76248,8.2011 18.71078,12.23129 26.92055,19.88452 8.86171,6.0479 18.90417,10.12527 28.36122,15.14033 7.93455,4.06946 16.2037,7.42736 23.97056,11.80739 14.95485,5.45627 28.67148,14.11424 44.0462,18.45501 15.98106,4.0743 32.57484,4.32169 48.89178,5.86362 3.7803,-0.43721 8.12032,0.33726 11.51416,-1.66715 2.17419,-2.52051 -1.01083,-5.61879 -1.82695,-8.05235 -4.12687,-10.22941 -9.93803,-19.6844 -13.76596,-30.04265 -4.36991,-9.76146 -9.39186,-19.28304 -12.03053,-29.71114 -3.84565,-10.25853 -3.31005,-21.47294 -2.93451,-32.23815 0.15678,-6.13607 1.55962,-12.3445 5.49796,-17.21975 7.5059,-9.88759 16.12844,-18.99804 25.50059,-27.12735 7.09262,-5.65605 14.91656,-10.47173 20.98295,-17.31685 3.6133,-2.63763 7.25142,-5.28795 10.36765,-8.56461 11.91187,-11.29756 25.93067,-20.75842 41.53855,-26.03072 3.72069,-0.84814 6.78164,-3.48111 10.41426,-4.37151 5.36788,10e-4 10.83064,2.18828 16.14074,0.97562 2.34842,-2.05884 0.14071,-5.66956 -1.30412,-7.63139 -11.17737,-13.96511 -23.91041,-26.64348 -37.82134,-37.88871 -5.25563,-4.6842 -11.24206,-8.44076 -17.7775,-11.06225 -10.77092,-6.86327 -20.81323,-14.84245 -31.83528,-21.33989 -9.34089,-5.21033 -18.32681,-11.01187 -27.48356,-16.53195 -18.00885,-10.07494 -36.2112,-20.5794 -56.4777,-25.38009 -15.90119,-4.53772 -32.3653,-6.91717 -48.90567,-6.98524 -4.86571,-0.11027 -9.73284,-0.18031 -14.59986,-0.13909 z"
       id="path74"
       inkscape:connector-curvature="0"
       transform="scale(0.26458333)" />
    <path
       style="opacity:1;vector-effect:none;fill:#216778;fill-opacity:1;stroke:none;stroke-width:0.00106397;stroke-linecap:square;stroke-linejoin:miter;stroke-miterlimit:4;stroke-dasharray:none;stroke-dashoffset:0;stroke-opacity:1"
       d="m 444.28939,324.36889 c -0.0779,-0.0163 -0.1802,0.0433 -0.14696,0.13086 0.0364,0.0974 0.16384,0.0728 0.24657,0.0981 0.867,0.13744 1.74316,0.22725 2.62127,0.24115 0.39182,-0.003 0.78479,-0.003 1.17539,-0.0353 0.0966,-0.008 0.12191,-0.15591 0.0303,-0.19057 -0.12527,-0.0305 -0.25934,-0.0219 -0.38793,-0.0364 -1.168,-0.0733 -2.33621,-0.14423 -3.50477,-0.20765 -0.0113,-2.5e-4 -0.0226,-5.4e-4 -0.0339,-3.1e-4 z"
       id="path76"
       inkscape:connector-curvature="0"
       transform="scale(0.26458333)" />
    <path
       style="opacity:1;vector-effect:none;fill:#ffeeaa;fill-opacity:1;stroke:none;stroke-width:0.02407492;stroke-linecap:square;stroke-linejoin:miter;stroke-miterlimit:4;stroke-dasharray:none;stroke-dashoffset:0;stroke-opacity:1"
       d="m 558.97715,630.35444 c -2.32207,-0.21388 -4.66923,1.32255 -5.00785,3.71063 -0.90441,5.5902 -0.62831,11.30227 -0.65141,16.94711 0.10932,10.12251 2.19308,20.13838 5.31263,29.73594 0.90673,3.17216 3.4235,5.42918 6.10097,7.15951 2.09493,1.58118 4.65069,2.61381 7.31141,2.25213 3.98086,-0.27786 8.0826,-0.45645 11.88127,-1.76742 3.13771,-1.48818 3.69506,-5.36814 4.02612,-8.45392 0.49285,-5.82053 -0.96873,-11.54972 -2.89069,-16.99344 -1.96234,-5.80779 -4.12276,-11.58652 -7.16034,-16.92627 -1.79293,-3.73045 -2.49092,-7.98905 -4.83275,-11.44659 -2.09136,-2.36763 -5.48344,-2.73264 -8.36089,-3.55723 -1.8812,-0.40027 -3.80022,-0.69458 -5.72847,-0.66045 z"
       id="path78"
       inkscape:connector-curvature="0"
       transform="scale(0.26458333)" />
    <path
       style="opacity:1;vector-effect:none;fill:#ffeeaa;fill-opacity:1;stroke:none;stroke-width:0.02407492;stroke-linecap:square;stroke-linejoin:miter;stroke-miterlimit:4;stroke-dasharray:none;stroke-dashoffset:0;stroke-opacity:1"
       d="m 535.98237,625.71109 c -2.44372,-0.0967 -3.41358,2.58436 -3.87058,4.53653 -1.4995,7.60509 -1.13117,15.42301 -1.52613,23.13074 -0.15316,6.33291 -0.57428,12.65079 -1.15893,18.95512 -0.0673,2.77655 -0.46918,6.17155 1.95274,8.15521 2.83434,2.22477 6.28669,3.73088 9.82235,4.413 3.35778,0.40766 6.07843,-3.00028 5.89272,-6.18669 0.18943,-8.16485 -2.41965,-16.044 -3.0582,-24.13863 -1.03241,-7.90292 -0.58788,-16.01647 -2.51092,-23.7937 -0.65187,-2.67016 -2.41576,-5.41361 -5.54305,-5.07158 z"
       id="path80"
       inkscape:connector-curvature="0"
       transform="scale(0.26458333)" />
    <path
       style="opacity:1;vector-effect:none;fill:#ffeeaa;fill-opacity:1;stroke:none;stroke-width:0.02407492;stroke-linecap:square;stroke-linejoin:miter;stroke-miterlimit:4;stroke-dasharray:none;stroke-dashoffset:0;stroke-opacity:1"
       d="m 503.81434,611.56106 c -3.30269,0.44798 -5.12583,3.75706 -6.80882,6.26576 -3.79694,6.05432 -6.27832,12.81951 -7.83195,19.7732 -1.21347,5.91325 -3.58789,11.47293 -5.42467,17.19488 -0.76852,4.43514 1.99674,8.47311 4.20782,12.06215 2.60571,4.27422 6.24338,7.79638 10.38551,10.57376 5.07757,3.41813 9.93609,7.25646 15.42024,10.01353 2.21234,0.90562 4.8242,0.88761 7.0607,0.076 0.0933,-16.17909 -0.0745,-32.44605 -0.11006,-48.65895 -0.1419,-5.90484 0.15114,-11.84975 -0.53608,-17.72454 -0.44751,-2.22088 -3.06429,-2.91554 -4.80809,-3.8443 -3.34837,-1.15166 -6.38843,-2.98778 -9.18224,-5.13136 -0.70437,-0.42946 -1.54832,-0.64672 -2.37236,-0.60008 z"
       id="path82"
       inkscape:connector-curvature="0"
       transform="scale(0.26458333)" />
    <path
       style="opacity:1;vector-effect:none;fill:#ffeeaa;fill-opacity:1;stroke:none;stroke-width:0.02407492;stroke-linecap:square;stroke-linejoin:miter;stroke-miterlimit:4;stroke-dasharray:none;stroke-dashoffset:0;stroke-opacity:1"
       d="m 462.45776,592.62564 c -2.06947,-0.0913 -2.98704,2.24769 -4.05886,3.62431 -4.9798,8.4449 -8.57656,17.64802 -11.60935,26.94859 -1.84856,5.85723 -3.31757,12.40374 -0.82953,18.31196 2.7685,6.74921 6.216,13.22525 10.03533,19.43657 1.7363,2.40201 3.47458,5.57102 6.63702,6.18817 3.176,0.29155 5.15107,-2.91228 6.44909,-5.33388 3.75052,-8.0442 6.32299,-16.57958 9.13074,-24.98404 3.04006,-9.85957 6.05825,-19.73886 10.04107,-29.27123 1.11644,-1.51215 -1.32198,-2.25741 -1.99885,-3.36178 -2.49782,-2.42604 -5.21451,-5.23343 -8.88655,-5.5382 -3.63721,-1.07653 -6.34369,-4.0458 -9.98759,-5.16027 -1.57306,-0.57475 -3.24098,-0.92904 -4.92252,-0.8602 z"
       id="path84"
       inkscape:connector-curvature="0"
       transform="scale(0.26458333)" />
    <path
       style="opacity:1;vector-effect:none;fill:#ffeeaa;fill-opacity:1;stroke:none;stroke-width:0.02407492;stroke-linecap:square;stroke-linejoin:miter;stroke-miterlimit:4;stroke-dasharray:none;stroke-dashoffset:0;stroke-opacity:1"
       d="m 434.75206,574.44141 c -2.57261,0.70158 -4.1825,3.14779 -5.90644,5.01712 -7.05004,8.471 -11.46622,18.73924 -18.1419,27.46165 -3.37085,4.17891 -7.70758,7.70531 -10.18488,12.54109 -1.24857,3.09688 1.47358,5.89301 3.80534,7.53619 6.47097,4.20668 14.29586,5.54412 20.97313,9.36184 1.53698,0.8026 3.66701,2.61195 5.31056,1.00899 2.24581,-1.80213 3.50868,-4.43631 4.18331,-7.18048 2.05748,-7.14182 2.70382,-14.65857 5.71096,-21.52075 2.1263,-4.71839 3.72422,-9.66827 5.88937,-14.36491 0.67597,-1.25621 1.83675,-2.33237 1.64741,-3.89806 0.23078,-2.24081 0.23627,-4.69224 -1.34407,-6.48855 -2.95659,-3.64819 -6.54396,-6.90718 -10.68799,-9.1476 -0.39586,-0.17036 -0.81584,-0.34126 -1.2548,-0.32653 z"
       id="path86"
       inkscape:connector-curvature="0"
       transform="scale(0.26458333)" />
    <path
       style="opacity:1;vector-effect:none;fill:#aca793;fill-opacity:1;stroke:none;stroke-width:0.03404708;stroke-linecap:square;stroke-linejoin:miter;stroke-miterlimit:4;stroke-dasharray:none;stroke-dashoffset:0;stroke-opacity:1"
       d="m 476.21123,330.21282 c -6.10224,0.0827 -12.29787,1.13586 -17.71973,4.03879 -5.4947,0.90977 -11.11029,-0.14649 -16.45159,-1.53181 -6.59983,-1.57328 -12.95303,1.73189 -19.13016,3.55259 -4.6425,1.74621 -9.2601,3.53653 -14.1794,4.35922 -5.04797,0.9828 -9.98506,2.99358 -13.62613,6.73523 -3.55061,3.02367 -6.48725,6.86761 -7.53139,11.48996 -3.33892,9.89449 -5.79448,20.05745 -7.34035,30.3853 -1.47763,8.04467 -2.32732,16.19484 -2.10062,24.38169 0.13611,17.75446 -0.61612,36.12992 5.58741,53.0724 2.81388,7.13645 6.55743,14.03679 11.57887,19.8615 7.0744,6.99668 14.60502,13.81573 23.80092,17.90414 7.38875,3.68813 15.56577,5.21479 23.21458,8.21708 7.77941,2.17315 15.98145,1.36245 23.95649,1.33151 4.84259,-0.006 9.60644,-1.35932 13.6604,-4.02709 2.894,-2.02581 6.97615,-1.71355 9.29618,-4.61426 5.69257,-6.67108 9.70941,-14.58802 13.85184,-22.26841 2.79442,-5.31419 5.31243,-10.88829 5.82032,-16.95104 1.67401,-12.58592 5.33873,-24.84742 6.30633,-37.54661 1.9269,-19.96448 1.71389,-40.14003 -0.37164,-60.08102 -1.04061,-7.58221 -2.12144,-15.30928 -4.9114,-22.46932 -3.79927,-5.6079 -9.52435,-9.72101 -15.44995,-12.85967 -5.69143,-2.50003 -12.11426,-2.98723 -18.26098,-2.98018 z M 450.167,346.20055 c 7.62107,0.44024 15.67106,1.1855 22.10771,5.71672 5.31985,3.72264 10.88877,7.3554 15.26674,12.20878 2.03425,2.863 4.32262,6.2849 3.76116,9.94768 -1.60874,4.45336 -4.9046,8.1148 -7.93458,11.68108 -2.35028,2.86728 -6.47703,2.6313 -9.75934,3.47796 -4.19816,0.94346 -8.65585,0.4969 -12.76158,1.7627 -3.34186,3.43608 -2.35722,8.96222 -5.55106,12.51116 -2.16685,3.2492 -6.4041,4.4733 -10.05023,3.29799 -6.55753,-1.82144 -11.28849,-7.2412 -16.11113,-11.74123 -3.88161,-3.30978 -6.01619,-8.08995 -7.04177,-12.98882 -1.31312,-5.61022 -1.47136,-11.78919 1.42605,-16.96184 2.13089,-4.99033 4.93865,-9.90702 9.6073,-12.93407 3.2743,-2.26315 6.61657,-4.73666 10.10979,-6.45314 2.31031,0.15834 4.62063,0.31669 6.93094,0.47503 z"
       id="path88"
       inkscape:connector-curvature="0"
       transform="scale(0.26458333)" />
    <path
       style="opacity:1;vector-effect:none;fill:#aca793;fill-opacity:1;stroke:none;stroke-width:0.02407492;stroke-linecap:square;stroke-linejoin:miter;stroke-miterlimit:4;stroke-dasharray:none;stroke-dashoffset:0;stroke-opacity:1"
       d="m 690.62634,429.74142 c -8.01621,-0.0622 -15.3181,3.8428 -22.09956,7.69403 -2.82407,2.03102 -5.97531,3.46134 -9.24041,4.60435 -5.67274,2.89868 -10.57828,7.11086 -16.31428,9.90032 -3.90077,2.89598 -6.92006,6.8 -10.26458,10.29071 -4.83778,4.98486 -9.61293,10.17488 -15.37685,14.11606 -3.60056,2.13233 -7.28793,4.16531 -10.46702,6.92692 -8.13695,6.89813 -15.76506,14.5072 -22.08827,23.12184 -3.58355,5.02221 -6.81321,10.81104 -6.55464,17.18342 0.12071,8.60628 1.36668,17.17899 3.09112,25.59957 3.50323,15.38926 10.71621,29.57118 17.46268,43.72984 4.04064,7.77937 7.33918,16.09787 12.94943,22.93333 4.83615,6.0218 12.60851,8.51927 19.97221,9.6729 5.50208,0.19942 11.05774,0.22055 16.52546,-0.48979 5.23748,-0.60982 8.88032,-4.87492 13.65778,-6.65428 2.44873,-0.7783 4.72565,-2.17234 6.10039,-4.40272 3.29281,-4.44513 8.24749,-7.20675 12.12724,-11.083 8.48098,-7.89113 16.97229,-15.84094 26.54255,-22.4246 6.78895,-4.84112 14.09863,-9.12037 19.76614,-15.34662 11.93561,-12.6304 21.76782,-27.50213 27.48132,-43.97848 1.62491,-5.30227 3.41997,-11.06174 1.93098,-16.60206 -0.19176,-1.40798 -1.58652,-2.70297 -3.02601,-2.00896 -2.46429,1.24857 -3.45224,4.12399 -5.18444,6.12503 -2.33423,3.41141 -5.64663,6.48779 -6.15611,10.81722 -1.06361,6.05086 -0.47755,12.70984 -3.85663,18.11467 -2.76716,4.06581 -8.1301,4.78867 -12.64662,5.31052 -1.83797,0.29983 -3.80391,0.0893 -5.12821,-1.38631 -2.99256,-2.98195 -6.32958,-6.31898 -6.80768,-10.74569 -1.53014,-7.52382 -4.32274,-14.76679 -5.16967,-22.43719 -1.01812,-9.09842 -0.7644,-18.31208 -0.19743,-27.43772 0.50231,-4.41221 0.67822,-9.20343 3.17958,-13.02583 2.82892,-4.04821 8.13206,-4.92274 11.52847,-8.28098 1.66434,-1.70951 0.19235,-4.14497 -1.058,-5.60467 -3.06981,-3.91528 -7.28712,-6.68769 -10.78861,-10.1331 -2.26134,-2.11491 -1.62805,-5.4428 -2.76558,-8.06247 -1.47976,-2.49805 -4.50329,-3.41023 -7.00942,-4.53731 -3.22129,-1.2186 -6.6936,-1.55525 -10.11533,-1.49895 z"
       id="path90"
       inkscape:connector-curvature="0"
       transform="scale(0.26458333)" />
    <path
       style="opacity:1;vector-effect:none;fill:#aad400;fill-opacity:1;stroke:none;stroke-width:0.01702354;stroke-linecap:square;stroke-linejoin:miter;stroke-miterlimit:4;stroke-dasharray:none;stroke-dashoffset:0;stroke-opacity:1"
       d="m 726.81922,470.04445 c -2.17406,0.19475 -3.54106,2.21082 -4.88316,3.70675 -3.7609,4.82572 -4.36449,11.18153 -5.02964,17.04904 -0.60419,6.19383 -0.61685,12.43812 -0.38331,18.65165 0.3976,4.3435 1.61905,8.57664 2.98584,12.70368 0.68979,1.56616 1.15935,3.57668 2.77798,4.44685 1.71411,0.57292 2.88855,-1.27351 3.56515,-2.5572 1.43305,-2.52553 1.66553,-5.45384 2.0048,-8.26957 0.46246,-2.71601 3.28759,-3.85821 5.36441,-5.15259 3.49219,-2.47323 5.63876,-6.39919 7.24121,-10.27344 1.81084,-4.32343 2.08145,-9.2729 0.50864,-13.71064 -2.08095,-6.09394 -6.30476,-11.25879 -11.13399,-15.41463 -0.86092,-0.67525 -1.88511,-1.25895 -3.01793,-1.1799 z"
       id="path92"
       inkscape:connector-curvature="0"
       transform="scale(0.26458333)" />
    <path
       style="opacity:1;vector-effect:none;fill:#aad400;fill-opacity:1;stroke:none;stroke-width:0.02407492;stroke-linecap:square;stroke-linejoin:miter;stroke-miterlimit:4;stroke-dasharray:none;stroke-dashoffset:0;stroke-opacity:1"
       d="m 452.13246,354.04441 c -5.15851,0.1745 -9.42538,3.76689 -12.8447,7.30144 -4.29889,4.82604 -8.09794,10.59615 -8.98604,17.12226 -0.51835,4.98271 3.28259,8.93179 6.57186,12.13763 2.26501,1.96818 4.30175,4.36967 7.02031,5.71711 1.95797,0.82096 3.35057,-1.34112 3.89622,-2.91232 1.89298,-4.46714 2.09924,-9.48183 4.0395,-13.90514 1.22101,-1.7268 3.72255,-1.34913 5.56718,-1.61782 3.99248,-0.1653 8.00769,0.15386 11.83477,1.32286 4.16922,0.71153 8.61688,-1.79211 10.46603,-5.52723 1.25208,-2.55417 -1.02295,-4.8888 -2.65659,-6.60101 -5.71151,-5.45029 -12.69827,-9.55092 -20.10983,-12.22295 -1.54995,-0.49164 -3.16539,-0.83749 -4.79871,-0.81483 z"
       id="path94"
       inkscape:connector-curvature="0"
       transform="scale(0.26458333)" />
    <path
       style="opacity:1;vector-effect:none;fill:#e6e6e6;fill-opacity:1;stroke:none;stroke-width:0.04814985;stroke-linecap:square;stroke-linejoin:miter;stroke-miterlimit:4;stroke-dasharray:none;stroke-dashoffset:0;stroke-opacity:1"
       d="M 157.45778,8.0931999 C 144.38028,8.7569954 131.37813,10.488111 118.31775,11.337839 106.15437,11.680923 93.304587,13.155102 83.132649,20.454744 73.613481,26.642821 63.884026,32.710088 55.602048,40.52462 44.806013,48.126766 34.351114,56.748203 27.355263,68.143021 16.144178,85.823908 13.255469,107.06369 10.320776,127.36913 c -1.6874843,12.60941 0.457651,25.30922 1.254799,37.90736 1.232268,19.16092 6.667211,37.87874 15.223347,55.0297 3.849989,7.72339 6.475248,16.46032 13.201837,22.31391 12.93788,13.67466 25.566464,27.64145 37.452742,42.2401 6.420908,7.78962 14.378455,14.43671 23.896419,18.0545 8.5004,4.27941 18.2338,3.51941 27.34909,5.03005 6.88671,0.448 13.66963,-0.80861 20.39246,-1.9986 4.32995,-0.24924 8.92109,-0.56982 12.31367,-3.64331 2.66107,-2.33473 6.017,-3.24 9.29116,-4.24851 8.28981,-4.91683 17.35361,-8.57798 25.02002,-14.52193 7.58574,-5.40797 15.64695,-10.23699 24.32308,-13.6596 9.28188,-4.76182 17.78907,-10.95905 27.05767,-15.69589 9.45305,-3.8229 18.33326,-9.5573 28.71231,-10.5189 12.1728,-1.61539 24.5063,-2.02943 36.761,-1.24032 12.3012,-0.0811 24.81776,0.10851 36.8006,-2.97983 11.10546,-1.3888 22.34236,-1.54366 33.48991,-2.58852 4.50886,2.03849 9.09964,3.97586 13.95569,4.86531 9.1789,3.31269 17.4647,8.62719 25.45407,14.13128 1.71379,1.31976 4.76066,0.84642 4.74791,-1.72239 0.3693,-7.715 -5.06512,-14.13269 -9.29192,-20.05229 -9.19772,-11.38554 -20.19038,-21.16874 -30.44623,-31.57622 -7.3848,-7.43058 -15.13764,-14.45922 -23.17344,-21.17152 -10.40298,-9.34365 -20.89332,-18.66179 -32.10285,-27.0294 -10.29904,-6.81503 -21.6392,-11.87469 -31.98461,-18.63265 -9.91,-5.85512 -20.13651,-11.22838 -30.85706,-15.41897 -9.37284,-5.08406 -19.02249,-9.76044 -29.39993,-12.42237 -17.73992,-5.43187 -36.02717,-8.644844 -54.33546,-11.450017 -10.62574,-1.859247 -21.50681,-1.306734 -32.22198,-0.744816 -9.32809,1.484278 -18.75971,2.995683 -27.74133,5.982043 -9.59757,4.09691 -17.7766,10.761 -26.097632,16.90718 -2.154423,1.72131 -6.276971,2.29812 -7.318676,-0.96181 -0.985262,-3.80524 3.292244,-6.33647 5.592341,-8.60011 3.659947,-3.29378 8.000687,-5.58675 12.092237,-8.2213 1.83742,-1.854686 4.7305,-3.564233 5.2451,-6.246375 -2.40233,-3.203779 -6.93937,-3.887945 -10.4754,-5.30527 -8.391732,-2.566464 -17.269761,-4.164773 -26.021829,-2.601749 -7.261966,1.153028 -14.792658,0.138209 -21.930825,2.001971 -6.92567,2.076358 -14.170514,5.409675 -21.518025,4.21324 -2.669293,-0.87561 -5.41179,-3.908992 -4.475646,-6.81557 2.205995,-1.797849 5.547444,-1.186358 8.049653,-2.48099 6.408452,-1.673242 12.52391,-4.682047 19.005862,-5.836096 14.529501,-0.432557 29.402573,-2.489046 43.62574,1.594435 5.31068,1.51431 11.04721,2.298643 15.91072,4.983492 2.12768,2.02481 3.08719,4.94405 4.59501,7.372931 8.79839,-0.214597 17.75267,-0.628845 26.10909,-3.616427 10.22119,-1.36015 20.56672,0.355534 30.79334,0.924149 10.81871,1.448937 21.36893,4.543524 32.19279,6.083335 12.28817,1.986137 24.39269,5.719014 36.87987,6.184684 2.16993,-0.12355 0.20251,-2.925356 -0.13711,-3.931119 -6.10861,-11.818063 -16.66647,-20.369135 -25.70236,-29.843386 -8.12345,-7.804944 -16.10443,-16.402314 -26.82208,-20.61585 -5.45233,-2.873226 -11.06722,-5.731546 -17.33227,-6.156414 -8.67354,-1.495904 -17.2281,-4.213222 -26.13932,-3.60056 -3.27215,-0.288551 -6.89796,0.492591 -9.99107,-0.623777 -0.2429,-2.463103 -1.79335,-5.292249 -0.83161,-7.681698 3.48055,-1.660729 7.69819,-1.058465 11.48358,-1.31814 4.34921,-0.235484 8.55841,0.661304 12.7086,1.787304 9.88783,1.593219 19.96145,3.006103 28.97494,7.670338 8.37911,3.663916 17.23161,7.45 22.91688,14.972611 12.4037,14.010606 26.16391,26.797925 38.12441,41.189422 2.24556,2.01481 -0.38255,4.371076 -1.34852,6.273997 -1.14164,1.458552 -2.67815,3.828402 -0.55933,5.208602 7.66891,5.75991 16.73947,9.30486 25.1731,13.78251 3.42841,1.94846 7.18165,3.14923 10.71389,4.74132 12.14271,7.42656 23.8114,15.84346 37.0499,21.30458 9.55067,5.09858 17.53572,12.65951 25.96384,19.37569 7.25674,5.53016 13.05745,13.10785 21.31136,17.23998 1.6596,0.65092 5.28772,2.06884 5.7926,-0.62444 0.84004,-5.13595 -3.69622,-8.9058 -5.41642,-13.3476 -4.76375,-9.3176 -12.35277,-16.72586 -17.97029,-25.49223 -6.65785,-9.86814 -14.26867,-19.10888 -23.35789,-26.84263 -10.36682,-9.33931 -18.94199,-20.716491 -30.40162,-28.802337 -7.17539,-4.379668 -15.27855,-6.895786 -23.01771,-9.942684 -3.24968,-0.336497 -7.60986,-1.309365 -8.03683,-5.251016 -0.0356,-2.13278 -0.87778,-5.339055 1.1236,-6.779073 6.23858,-0.294823 11.53665,4.096341 17.50011,5.385179 12.79594,3.056348 22.17602,13.173096 31.35995,21.917815 14.33835,14.010006 27.76574,28.942806 39.7622,45.018596 9.6509,11.82858 17.73416,24.86187 24.55781,38.49509 1.42142,2.3552 1.16701,5.53964 -1.26429,7.1581 -2.08675,1.59903 -3.99816,4.56138 -2.07155,7.03456 3.29249,6.19943 10.2403,8.74184 14.86551,13.70218 10.76244,10.12784 21.33315,20.56099 30.69197,32.01708 4.56702,6.46733 6.80475,14.22786 10.43629,21.21848 3.00594,7.19836 7.04906,14.70209 13.93858,18.80586 2.05384,0.0854 1.44561,-3.07555 1.52016,-4.39377 -2.02621,-14.92247 -6.71478,-29.36108 -11.5191,-43.58848 -2.09939,-6.20323 -5.11972,-12.08293 -7.34333,-18.1709 -2.8274,-4.40333 -5.8286,-8.686 -8.16122,-13.39128 -12.55367,-21.15174 -27.18674,-40.9648 -41.83253,-60.69117 -7.37551,-8.6297 -13.49908,-18.27318 -21.57426,-26.31625 C 353.56881,98.280271 344.02711,88.573462 332.72492,81.068837 325.83104,75.829646 319.38132,69.91896 311.90243,65.538636 303.95645,59.530112 297.58466,51.456885 288.45167,47.063609 276.96543,40.841154 267.2639,31.749859 255.23446,26.469545 245.8883,21.381395 235.59476,18.469464 225.1239,16.831553 202.74511,12.712969 180.33428,7.9011073 157.45778,8.0931999 Z M 215.97659,125.90126 c 5.03732,0.41358 10.72001,-0.55142 15.24008,2.16531 1.58637,1.15546 1.26373,3.3939 1.28637,5.09121 -12.23924,1.32602 -24.79867,0.0793 -36.83505,2.97718 -15.90736,6.40859 -31.17888,14.31832 -46.41398,22.1652 -7.48308,3.73914 -11.5719,11.46878 -18.05143,16.47995 -8.13347,6.77781 -15.70429,14.28691 -21.6284,23.11128 -1.587,1.71309 -3.63032,5.47325 -6.42887,4.11559 -1.35167,-2.99918 -0.57621,-6.72703 -0.53171,-9.96441 0.41207,-3.71733 4.31749,-5.80077 6.32844,-8.67766 4.93622,-5.45032 9.33852,-11.44512 15.37101,-15.78175 7.19214,-5.96252 13.20872,-13.32299 20.80686,-18.7621 2.6468,-0.23754 4.14605,-2.70683 6.64598,-3.47896 9.46191,-4.34616 19.63029,-7.0155 28.85347,-11.94585 9.64307,-4.93305 20.34832,-7.52913 31.18964,-7.44359 1.38879,-0.0403 2.77827,-0.0504 4.16759,-0.0514 z M 87.465259,146.61234 c 2.311552,0.0998 4.332478,2.22526 5.101073,4.21226 -3.977208,5.18997 -10.312991,7.93453 -14.820832,12.64565 -6.522191,5.81916 -12.055367,12.6443 -16.666532,20.05014 -1.07063,1.98626 -3.822423,2.96785 -5.397015,0.9776 -2.904877,-4.96779 -0.35541,-11.40966 3.204075,-15.42751 7.297221,-8.24331 15.463526,-16.06221 25.156152,-21.41839 1.077727,-0.50657 2.211891,-1.00994 3.423079,-1.03975 z m 166.840891,41.37383 c 5.79677,-0.443 10.97818,3.23739 16.83702,2.47431 23.04729,0.57981 46.12222,-0.20984 69.15617,0.77811 8.01136,0.4808 15.17605,4.67093 23.08754,5.80381 4.45502,0.77393 10.31121,1.89388 11.96297,6.77476 0.0372,2.72429 -3.19443,4.3857 -5.60713,3.37178 -8.51732,-1.50639 -16.79081,-4.41361 -25.26461,-5.96407 -28.77116,-0.36928 -57.56533,-0.27047 -86.30102,-1.8656 -9.38468,0.14322 -19.08384,-1.09054 -28.23396,1.51227 -9.10219,3.36156 -16.27387,10.29277 -23.86414,16.0952 -5.39594,4.8337 -11.13479,9.23791 -16.84185,13.67964 -6.6166,5.78933 -12.48692,12.47234 -16.71947,20.19595 -2.28564,3.07109 -5.46062,7.55617 -9.82761,6.64214 -1.88204,-3.55384 -2.21675,-8.3611 0.8898,-11.38888 3.92873,-4.17988 7.38289,-8.78123 11.02072,-13.19302 4.02271,-4.1162 7.11546,-9.03389 11.94351,-12.34329 9.95315,-7.78676 18.2583,-17.7668 29.45127,-23.87467 7.14118,-5.52012 16.08773,-7.86252 24.98645,-8.21703 4.43491,-0.29302 8.88093,-0.41297 13.32434,-0.48141 z"
       id="path96"
       inkscape:connector-curvature="0"
       transform="scale(0.26458333)" />
    <path
       style="opacity:1;vector-effect:none;fill:url(#radialGradient924);fill-opacity:1;stroke:none;stroke-width:0.01273965;stroke-linecap:square;stroke-linejoin:miter;stroke-miterlimit:4;stroke-dasharray:none;stroke-dashoffset:0;stroke-opacity:1"
       d="m 41.660704,2.1413245 c -3.460088,0.1756292 -6.90024,0.6336536 -10.355799,0.8584774 -3.218228,0.090774 -6.618067,0.4808176 -9.309392,2.4121813 -2.518613,1.637262 -5.092865,3.2425597 -7.284138,5.3101548 -2.856451,2.011401 -5.6226429,4.292489 -7.4736285,7.307368 -2.9662661,4.678068 -3.7305704,10.29776 -4.5070412,15.670241 -0.4464802,3.33624 0.1210868,6.696398 0.3319989,10.029656 0.3260376,5.06966 1.7640329,10.022083 4.0278438,14.559941 1.0186429,2.04348 1.7132427,4.355126 3.492986,5.903889 3.423147,3.618087 6.76446,7.313467 9.909371,11.176026 1.698865,2.061004 3.8043,3.819713 6.322594,4.77692 2.249065,1.13226 4.82436,0.931177 7.236114,1.330867 1.822109,0.118534 3.616756,-0.213944 5.395505,-0.528796 1.145633,-0.06594 2.360372,-0.150765 3.257992,-0.963959 0.704075,-0.617731 1.591998,-0.85725 2.458286,-1.124085 2.193346,-1.300911 4.591476,-2.269591 6.61988,-3.842261 2.007061,-1.430858 4.139923,-2.708537 6.435482,-3.614102 2.455831,-1.259898 4.706691,-2.899582 7.159009,-4.152871 2.501119,-1.011476 4.850675,-2.528702 7.596798,-2.783126 3.22072,-0.427405 6.483959,-0.536953 9.726348,-0.328168 3.254693,-0.02146 6.566366,0.02871 9.736826,-0.788413 2.938319,-0.367453 5.911416,-0.408427 8.860871,-0.684879 1.19297,0.53935 2.40762,1.051946 3.69245,1.28728 2.42858,0.876482 4.62087,2.28261 6.73472,3.738901 0.45344,0.349186 1.25959,0.223948 1.25622,-0.455716 0.0977,-2.04126 -1.34015,-3.739274 -2.45849,-5.305502 -2.43356,-3.012424 -5.34204,-5.600895 -8.05557,-8.354541 -1.95389,-1.966008 -4.005165,-3.825669 -6.131304,-5.601631 -2.752455,-2.472174 -5.528024,-4.937599 -8.493879,-7.151529 -2.724954,-1.803144 -5.725372,-3.141845 -8.462595,-4.929889 -2.622021,-1.549167 -5.327785,-2.970842 -8.164264,-4.079602 -2.479897,-1.345158 -5.033033,-2.58245 -7.778731,-3.286752 -4.693687,-1.437182 -9.532189,-2.287281 -14.376257,-3.029483 -2.811394,-0.491926 -5.690344,-0.345741 -8.525399,-0.197066 -2.468057,0.392715 -4.963507,0.792607 -7.339894,1.582748 -2.539357,1.083975 -4.703392,2.847181 -6.904999,4.473358 -0.570024,0.45543 -1.660782,0.608044 -1.936399,-0.254479 -0.260684,-1.006803 0.871072,-1.676524 1.47964,-2.275446 0.968361,-0.871478 2.116848,-1.47816 3.199405,-2.175218 0.48615,-0.490719 1.251611,-0.943037 1.387766,-1.652687 -0.635617,-0.847666 -1.836042,-1.028685 -2.771617,-1.403686 -2.220312,-0.679043 -4.569291,-1.101929 -6.884942,-0.688379 -1.921395,0.305072 -3.913891,0.03657 -5.802531,0.529688 -1.832417,0.54937 -3.749282,1.43131 -5.6933105,1.114753 C 8.562379,24.319836 7.83676,23.517254 8.0844481,22.748222 c 0.5836695,-0.475681 1.4677613,-0.313891 2.1298039,-0.656429 1.69557,-0.442712 3.313618,-1.238791 5.028634,-1.544134 3.844264,-0.114447 7.779431,-0.65856 11.542644,0.421861 1.405117,0.400662 2.922908,0.608183 4.209712,1.318549 0.562948,0.535731 0.816819,1.308113 1.215763,1.950755 2.327907,-0.05678 4.69706,-0.166382 6.90803,-0.956846 2.704356,-0.359873 5.441611,0.09407 8.147404,0.244514 2.862451,0.383365 5.653863,1.202141 8.517676,1.609549 3.251245,0.525499 6.453899,1.513156 9.757799,1.636364 0.574127,-0.03269 0.05358,-0.774 -0.03628,-1.040108 -1.616236,-3.126863 -4.40967,-5.389334 -6.800416,-7.896063 -2.14933,-2.065058 -4.260964,-4.339779 -7.096675,-5.45461 C 50.16595,11.621417 48.680344,10.865153 47.022716,10.75274 44.727842,10.356949 42.464448,9.6379915 40.106687,9.8000917 39.240931,9.7237459 38.281602,9.930423 37.463217,9.6350507 37.39895,8.9833547 36.988726,8.2348098 37.243187,7.6026014 c 0.920895,-0.4394012 2.036812,-0.2800522 3.038364,-0.3487579 1.150728,-0.062305 2.264412,0.1749701 3.362483,0.4728909 2.616155,0.4215392 5.281467,0.7953647 7.666286,2.0294436 2.216973,0.969411 4.559197,1.971146 6.063425,3.961503 3.281812,3.706973 6.922535,7.090284 10.087083,10.898034 0.594138,0.533086 -0.101216,1.156514 -0.356795,1.659996 -0.302059,0.385908 -0.708594,1.012931 -0.14799,1.378109 2.029066,1.523975 4.428985,2.46191 6.660383,3.646622 0.9071,0.51553 1.900145,0.833233 2.834717,1.254474 3.212758,1.964944 6.300099,4.191915 9.802786,5.636837 2.526948,1.348999 4.639659,3.349495 6.869599,5.126484 1.920012,1.463189 3.454784,3.468119 5.638631,4.561412 0.439102,0.172222 1.399041,0.54738 1.532621,-0.165217 0.22227,-1.358886 -0.977954,-2.356326 -1.43309,-3.531552 -1.260409,-2.465282 -3.268337,-4.425384 -4.75464,-6.744819 -1.761556,-2.610946 -3.775252,-5.055892 -6.180108,-7.102113 -2.742888,-2.471025 -5.011735,-5.481238 -8.043762,-7.620618 -1.898489,-1.158787 -4.04245,-1.82451 -6.090102,-2.630668 -0.859812,-0.08903 -2.013443,-0.346436 -2.126412,-1.389331 -0.0094,-0.564298 -0.232246,-1.412625 0.297286,-1.79363 1.650624,-0.078 3.052405,1.083823 4.630238,1.424828 3.385592,0.808659 5.867405,3.485382 8.29732,5.799089 3.793688,3.706814 7.346352,7.657784 10.520415,11.91117 2.553467,3.129645 4.692165,6.578036 6.497585,10.185159 0.37609,0.623147 0.30877,1.465696 -0.33451,1.893914 -0.55212,0.423077 -1.05784,1.206865 -0.54809,1.861227 0.87113,1.640266 2.70941,2.312945 3.93316,3.625369 2.84757,2.679657 5.6444,5.440095 8.12059,8.471185 1.20835,1.711148 1.80042,3.764455 2.76127,5.614057 0.79532,1.904566 1.86506,3.889928 3.68791,4.975717 0.54341,0.02259 0.38249,-0.81374 0.40221,-1.162519 -0.5361,-3.948237 -1.77662,-7.768452 -3.04776,-11.532785 -0.55546,-1.641271 -1.35459,-3.196942 -1.94292,-4.807717 -0.74809,-1.165048 -1.54215,-2.298171 -2.15933,-3.54311 -3.32149,-5.596398 -7.19315,-10.838603 -11.06819,-16.057872 -1.951437,-2.283275 -3.571631,-4.834779 -5.708189,-6.96284 C 93.548414,26.00332 91.02384,23.43506 88.033469,21.449462 86.209463,20.063259 84.502974,18.49939 82.524185,17.340429 80.421811,15.750674 78.735941,13.614633 76.319504,12.452245 73.280437,10.805887 70.713574,8.4004824 67.530784,7.0033993 65.057946,5.6571596 62.334447,4.8867112 59.564032,4.4533471 53.642977,3.3636384 47.713445,2.0905 41.660704,2.1413245 Z M 57.143806,33.311373 c 1.332791,0.109426 2.836336,-0.145897 4.032271,0.572905 0.419727,0.305715 0.334362,0.897969 0.340352,1.347049 -3.238298,0.350843 -6.561314,0.02098 -9.74594,0.787712 -4.208822,1.695606 -8.249412,3.788389 -12.280365,5.864543 -1.979899,0.989314 -3.061732,3.034448 -4.776108,4.36032 -2.151981,1.793296 -4.155093,3.780078 -5.722515,6.114859 -0.419893,0.453256 -0.960522,1.448131 -1.700971,1.088917 -0.35763,-0.793533 -0.152456,-1.77986 -0.140682,-2.636417 0.109027,-0.983543 1.142336,-1.534787 1.6744,-2.295964 1.306042,-1.442064 2.470817,-3.028188 4.066913,-4.175588 1.902921,-1.577583 3.494807,-3.525041 5.505149,-4.964139 0.700299,-0.06285 1.096975,-0.716182 1.758415,-0.920475 2.503464,-1.149921 5.193848,-1.856184 7.634147,-3.160673 2.551396,-1.305202 5.383827,-1.992082 8.252259,-1.969449 0.367451,-0.01066 0.735084,-0.01334 1.102675,-0.0136 z M 23.141849,38.79118 c 0.611598,0.0264 1.146302,0.588766 1.349659,1.114493 -1.052303,1.37318 -2.728645,2.099345 -3.921345,3.345829 -1.725663,1.539652 -3.189649,3.345471 -4.409686,5.304932 -0.283271,0.525532 -1.01135,0.785244 -1.427961,0.258657 -0.768582,-1.314394 -0.09403,-3.018806 0.847745,-4.081862 1.930723,-2.181042 4.091391,-4.249793 6.655899,-5.666949 0.285148,-0.13403 0.585229,-0.267213 0.905689,-0.2751 z m 44.14332,10.946825 c 1.533729,-0.11721 2.904643,0.85656 4.454795,0.654662 6.097929,0.153408 12.203171,-0.05552 18.29757,0.205874 2.119672,0.127212 4.01533,1.235851 6.108578,1.535592 1.178724,0.204769 2.728174,0.501089 3.165203,1.792488 0.0098,0.720802 -0.845193,1.160384 -1.483554,0.892117 -2.25354,-0.398565 -4.442568,-1.167767 -6.684594,-1.577993 -7.61237,-0.09771 -15.230827,-0.07156 -22.833812,-0.493607 -2.48303,0.03789 -5.049266,-0.288539 -7.470235,0.400122 -2.408288,0.889412 -4.305795,2.723295 -6.314054,4.258521 -1.427676,1.278917 -2.94608,2.444197 -4.456073,3.619405 -1.750642,1.53176 -3.303831,3.299973 -4.423693,5.343512 -0.604742,0.812559 -1.444789,1.999236 -2.600222,1.757399 -0.497956,-0.940287 -0.586515,-2.212207 0.235427,-3.013308 1.039476,-1.105926 1.953389,-2.323367 2.915899,-3.490653 1.064342,-1.089078 1.882632,-2.390217 3.160053,-3.265829 2.633438,-2.060247 4.830842,-4.700799 7.792315,-6.316839 1.889438,-1.460532 4.256546,-2.080292 6.610999,-2.17409 1.173403,-0.07753 2.349746,-0.109265 3.525398,-0.127373 z"
       id="path96-3"
       inkscape:connector-curvature="0" />
    <path
       style="opacity:1;vector-effect:none;fill:#e6e6e6;fill-opacity:1;stroke:none;stroke-width:0.06809416;stroke-linecap:square;stroke-linejoin:miter;stroke-miterlimit:4;stroke-dasharray:none;stroke-dashoffset:0;stroke-opacity:1"
       d="m 764.84062,140.90854 c -19.92858,5.51177 -40.73674,10.60107 -57.46621,23.41567 -11.03545,7.49326 -23.35651,13.36208 -32.37827,23.46987 -4.10723,3.92911 -8.18062,8.09342 -9.76744,13.70197 -9.77496,21.4206 -14.87868,44.913 -15.3861,68.43306 0.64796,13.54719 1.55692,27.3314 5.33005,40.40744 0.5414,2.08017 2.91513,1.63362 3.16406,-0.35714 5.60087,-14.91167 11.67919,-29.92346 20.69615,-43.13756 5.18952,-7.60793 13.17371,-13.17467 17.44001,-21.38393 0.7407,-2.68902 -2.56262,-4.63081 -1.62946,-7.49302 3.05397,-15.94282 15.27032,-27.94059 26.79408,-38.46122 12.17396,-8.36223 26.36622,-13.50004 40.54355,-17.3372 19.22346,-3.59953 38.9783,-1.3446 58.33471,-0.0704 10.57554,1.31324 21.60358,1.04942 31.80952,4.21561 2.2719,0.68093 3.26536,4.55697 1.61551,5.99051 -10.68915,-0.81904 -21.31507,-3.26618 -32.08297,-3.82993 -17.4724,-1.78694 -35.16896,-2.29559 -52.5197,0.91866 -13.35677,2.1072 -25.61315,8.43965 -37.56111,14.4654 -8.8005,6.15727 -16.38261,14.33888 -21.96428,23.51423 -1.35001,2.19213 -1.45459,7.41315 2.35072,6.57366 6.70039,-1.22078 12.19493,-6.6079 19.34196,-5.24325 14.45784,-0.3222 29.19601,-1.21801 43.18734,3.22456 10.35032,2.87517 19.53304,9.12467 30.3523,10.58135 6.998,1.51289 10.69609,8.71532 17.16444,11.36759 22.99073,16.17489 47.46178,30.10557 70.73504,45.8706 11.73924,6.91703 22.64402,15.05362 33.1132,23.75473 16.69502,13.44047 33.03857,27.52585 47.46594,43.39504 11.04975,15.64071 22.39295,31.21945 31.59174,48.04408 1.6102,4.65471 4.6448,9.86614 3.2911,14.85212 -2.7245,0.13445 -5.3627,-2.55503 -7.3591,-4.35268 -5.21332,-6.48834 -6.39926,-15.24109 -11.18307,-22.06892 -9.66583,-15.33136 -19.03007,-31.02091 -30.58522,-45.02256 -12.45734,-12.02829 -25.97438,-23.12638 -40.59084,-32.4314 -1.16819,-1.12321 -2.79547,-0.26601 -1.56389,1.20257 10.99093,18.00814 26.46418,32.91338 36.55134,51.52344 14.03901,21.53023 26.62131,44.28162 34.33229,68.90372 6.83572,18.41383 14.62969,36.88436 15.78329,56.74103 0.076,4.08592 1.5707,8.49797 0.4606,12.437 -2.4507,3.14831 -6.47052,-0.87055 -8.70074,-2.31453 -4.40093,-1.86207 -4.13161,-6.04991 -3.89953,-10.18362 1.01454,-17.96246 -6.15953,-34.83342 -11.03515,-51.75182 -6.6778,-20.71251 -16.82489,-40.09578 -26.59325,-59.47287 -5.02897,-8.44096 -10.1241,-16.84613 -15.41866,-25.11784 -9.63121,-11.98325 -16.96656,-25.8554 -28.69997,-36.06927 -5.72919,-6.16317 -14.3102,-9.92138 -18.14992,-17.65422 -1.49924,-3.57575 2.75678,-8.62875 -1.97684,-10.89007 -20.41717,-15.88073 -42.79284,-28.98571 -64.7036,-42.64576 -5.55697,-3.35217 -11.54086,-5.95018 -17.74897,-7.64302 -13.09008,-5.96317 -25.98246,-13.13808 -40.12243,-16.126 -13.01882,-0.27038 -26.04331,-0.58428 -39.05865,-0.82573 -18.11672,10.19625 -33.49295,25.01633 -45.42411,41.95033 -5.9416,9.77077 -11.45241,20.1716 -14.05413,31.37137 -0.69464,4.76362 -0.30168,9.69262 -0.0404,14.41406 18.61219,0.62274 38.01156,0.11244 55.26366,8.25057 25.58974,11.5167 50.80587,24.07338 74.83475,38.58922 19.68388,12.1377 37.19287,27.35191 55.59285,41.27456 22.00177,18.53001 42.28332,38.99709 63.22754,58.68253 11.93778,14.04153 25.51588,26.60881 37.33956,40.74498 9.52408,12.82765 19.52285,25.29077 28.98692,38.1607 7.61115,9.58137 16.76357,17.79615 26.93667,24.55713 4.7456,3.60727 8.913,8.12955 14.5326,10.32067 8.7962,5.33908 19.515,6.1926 29.5633,6.80943 13.9861,-0.17383 26.9506,-9.08808 34.2662,-20.64593 4.2658,-9.33472 9.0134,-18.77193 10.8566,-28.93554 1.1153,-12.09699 0.7644,-24.54865 -3.6222,-36.02753 -9.5456,-30.48043 -18.2721,-61.46208 -32.9093,-90.00283 -10.3396,-21.92432 -21.5783,-43.42635 -32.1153,-65.24196 -6.4721,-17.17086 -17.9769,-31.70569 -26.0993,-48.04967 -5.63837,-10.19499 -13.83197,-18.62876 -19.65042,-28.73015 -12.80814,-18.39944 -23.60972,-38.36797 -39.30542,-54.58357 -10.56468,-12.05159 -23.18728,-21.96036 -36.3343,-31.02989 -17.67074,-12.11714 -34.49903,-25.8103 -53.84631,-35.22285 -14.75935,-6.54954 -31.02154,-8.7662 -46.92659,-10.65536 -14.76684,-0.96583 -29.58818,-0.76958 -44.37639,-1.12025 z m 97.44419,111.86942 c 25.53957,1.09171 49.19481,12.12365 73.08799,20.13549 9.22692,3.30515 19.05843,6.02254 26.17122,13.18482 11.02306,9.96932 22.06716,20.3856 30.07115,33.0106 2.09107,1.9911 -0.35173,5.09358 -2.65764,3.59096 -7.6552,-5.30719 -10.90795,-14.82179 -18.2101,-20.60407 -9.28186,-8.36781 -18.5868,-17.4562 -30.25391,-22.37724 -23.78048,-8.84777 -48.26633,-16.45565 -73.63539,-18.89852 -4.34992,-1.04653 -10.79695,-0.52835 -13.07499,-5.22118 0.90155,-3.55347 5.89762,-2.3765 8.50167,-2.82086 z m -160.79938,29.71401 c 14.68433,0.12449 27.37342,8.84814 40.95982,13.34821 16.58069,5.64077 32.41613,13.10492 47.87679,21.28993 19.99492,10.62124 41.81821,20.11166 56.16377,38.39848 5.15484,6.93655 11.83807,12.50851 17.52473,18.91789 1.99043,2.44217 -2.71971,5.13369 -4.18248,2.51535 -12.43037,-13.03806 -23.53278,-27.87503 -38.68077,-37.98961 -21.14851,-13.1185 -43.21919,-24.98093 -66.36909,-34.1716 -14.79715,-4.77807 -28.63059,-12.66485 -43.9959,-15.55224 -7.48721,-1.04023 -14.50233,2.18506 -21.26953,4.7726 -3.37086,1.09944 -6.2193,-3.49429 -5.75749,-5.72843 4.64869,-4.5937 11.43467,-5.82244 17.73015,-5.80058 z"
       id="path926"
       inkscape:connector-curvature="0"
       transform="scale(0.26458333)" />
    <path
       style="opacity:1;vector-effect:none;fill:url(#radialGradient949);fill-opacity:1;stroke:none;stroke-width:0.01801658;stroke-linecap:square;stroke-linejoin:miter;stroke-miterlimit:4;stroke-dasharray:none;stroke-dashoffset:0;stroke-opacity:1"
       d="m 202.36408,37.282049 c -5.27277,1.458323 -10.77826,2.804867 -15.2046,6.195397 -2.9198,1.982591 -6.17975,3.535383 -8.56675,6.209736 -1.08671,1.039577 -2.16446,2.141384 -2.58431,3.625313 -2.58629,5.667534 -3.93665,11.883232 -4.0709,18.106247 0.17144,3.584361 0.41193,7.231433 1.41024,10.691136 0.14325,0.550378 0.7713,0.432228 0.83716,-0.09449 1.4819,-3.945379 3.09012,-7.917249 5.47585,-11.413479 1.37307,-2.012932 3.48555,-3.485798 4.61434,-5.657832 0.19598,-0.711469 -0.67803,-1.225235 -0.43113,-1.982528 0.80803,-4.218204 4.04027,-7.392614 7.08927,-10.176198 3.22103,-2.212506 6.97606,-3.571885 10.72715,-4.587134 5.0862,-0.952376 10.31301,-0.355759 15.43439,-0.01863 2.79811,0.347461 5.71595,0.277659 8.41627,1.11538 0.60111,0.180162 0.86396,1.205698 0.42744,1.584989 -2.82818,-0.216705 -5.63962,-0.864177 -8.48862,-1.013336 -4.62291,-0.472794 -9.30512,-0.607375 -13.89584,0.243062 -3.53398,0.55753 -6.77681,2.232991 -9.93804,3.827304 -2.32847,1.629111 -4.33457,3.793829 -5.81139,6.221473 -0.35719,0.580001 -0.38486,1.961396 0.62196,1.739281 1.77282,-0.322998 3.22658,-1.74834 5.11756,-1.387276 3.82531,-0.08525 7.72478,-0.322265 11.42665,0.853165 2.73853,0.760722 5.16812,2.414235 8.03072,2.799648 1.85155,0.400286 2.83,2.305929 4.54142,3.007675 6.08297,4.279607 12.5576,7.965432 18.71531,12.136596 3.10601,1.830131 5.99124,3.982937 8.76121,6.285106 4.41722,3.556124 8.74145,7.282881 12.55869,11.481604 2.92358,4.138272 5.9248,8.260142 8.35865,12.711662 0.42603,1.23156 1.22894,2.61042 0.87077,3.92962 -0.72086,0.0356 -1.41888,-0.67601 -1.94709,-1.15164 -1.37936,-1.71671 -1.69314,-4.03254 -2.95886,-5.83907 -2.55742,-4.05642 -5.03504,-8.207616 -8.09234,-11.912219 -3.296,-3.182485 -6.87239,-6.118855 -10.73966,-8.580808 -0.30908,-0.297183 -0.73963,-0.07038 -0.41378,0.31818 2.90802,4.764653 7.00198,8.708332 9.67088,13.632247 3.71449,5.69654 7.04355,11.71617 9.08375,18.23077 1.80862,4.87199 3.87077,9.75899 4.176,15.01273 0.0201,1.08107 0.41558,2.24842 0.12186,3.29063 -0.64841,0.83298 -1.71199,-0.23034 -2.30207,-0.61239 -1.16441,-0.49267 -1.09315,-1.60071 -1.03175,-2.69442 0.26843,-4.75256 -1.62971,-9.21634 -2.91972,-13.69267 -1.76683,-5.48018 -4.45158,-10.60867 -7.03613,-15.73553 -1.33058,-2.23333 -2.67866,-4.457201 -4.07952,-6.645757 -2.54825,-3.170569 -4.48907,-6.840908 -7.59353,-9.543328 -1.51585,-1.630672 -3.78624,-2.625032 -4.80217,-4.671012 -0.39667,-0.946084 0.7294,-2.283024 -0.52304,-2.881331 -5.40204,-4.201777 -11.32227,-7.669136 -17.11949,-11.283358 -1.47028,-0.886928 -3.05352,-1.574318 -4.69608,-2.022215 -3.46342,-1.577756 -6.87453,-3.476117 -10.61573,-4.266671 -3.44456,-0.07154 -6.89062,-0.154591 -10.33427,-0.218475 -4.79338,2.697758 -8.86167,6.618904 -12.01846,11.099359 -1.57205,2.585182 -3.03011,5.337069 -3.71849,8.300341 -0.18379,1.260375 -0.0798,2.564506 -0.0107,3.81372 4.92448,0.164767 10.05723,0.02975 14.62185,2.182964 6.77062,3.047126 13.44238,6.369415 19.80002,10.210064 5.20803,3.211429 9.84062,7.236859 14.70895,10.920559 5.8213,4.90273 11.18746,10.31798 16.72895,15.52642 3.15854,3.71516 6.75108,7.04025 9.87943,10.78044 2.51991,3.39398 5.16542,6.69152 7.66945,10.09669 2.01378,2.53507 4.43536,4.70856 7.12699,6.4974 1.25561,0.95443 2.35824,2.15095 3.84509,2.73068 2.32733,1.41263 5.16334,1.63846 7.82196,1.80166 3.70049,-0.046 7.13068,-2.40455 9.06626,-5.46257 1.12866,-2.46981 2.3848,-4.96674 2.87248,-7.65586 0.29509,-3.20066 0.20224,-6.49516 -0.95838,-9.53228 -2.5256,-8.06461 -4.83449,-16.26184 -8.70725,-23.81325 -2.73568,-5.80081 -5.70926,-11.489887 -8.49717,-17.261933 -1.71241,-4.543124 -4.75639,-8.388798 -6.90544,-12.713142 -1.49182,-2.697425 -3.65971,-4.92886 -5.19918,-7.601519 -3.38882,-4.868185 -6.24674,-10.151526 -10.39956,-14.441903 -2.79523,-3.18865 -6.13496,-5.810345 -9.61345,-8.209992 -4.67538,-3.205994 -9.12786,-6.828975 -14.24683,-9.319379 -3.90508,-1.732899 -8.20778,-2.319391 -12.416,-2.819231 -3.90706,-0.255543 -7.82853,-0.203618 -11.74125,-0.296399 z m 25.78211,29.598785 c 6.75734,0.288848 13.01612,3.207716 19.33786,5.327515 2.44129,0.874488 5.04254,1.593464 6.92447,3.488484 2.91652,2.637716 5.8386,5.39369 7.95632,8.734054 0.55327,0.526812 -0.0931,1.347677 -0.70316,0.950108 -2.02544,-1.404194 -2.88606,-3.921598 -4.81809,-5.451493 -2.45583,-2.213983 -4.91776,-4.61862 -8.00468,-5.920645 -6.29192,-2.340972 -12.77047,-4.353891 -19.4827,-5.000233 -1.15092,-0.276895 -2.85669,-0.139793 -3.45942,-1.381437 0.23853,-0.940189 1.56041,-0.628783 2.2494,-0.746353 z m -42.54484,7.861832 c 3.88523,0.03294 7.24255,2.34107 10.83729,3.531714 4.38697,1.492453 8.57676,3.467343 12.6674,5.63296 5.29032,2.810203 11.0644,5.32121 14.85999,10.159598 1.36389,1.835296 3.13216,3.309543 4.63676,5.005359 0.52663,0.646157 -0.71959,1.358283 -1.10662,0.665519 -3.28887,-3.449653 -6.22638,-7.375268 -10.23429,-10.051417 -5.59554,-3.470937 -11.43507,-6.609538 -17.56015,-9.041236 -3.91508,-1.264198 -7.57518,-3.350908 -11.64058,-4.114864 -1.98099,-0.275227 -3.83708,0.578131 -5.62757,1.262751 -0.89187,0.290893 -1.64552,-0.924531 -1.52333,-1.515647 1.22996,-1.215417 3.02542,-1.540521 4.6911,-1.534737 z"
       id="path926-6"
       inkscape:connector-curvature="0" />
  </g>
  <g
     inkscape:label="Layer 1"
     inkscape:groupmode="layer"
     id="layer1"
     transform="translate(-1.4691366,-88.406544)">
    <path
       style="fill:#000000;stroke-width:0.29453638"
       d="m 151.499,273.7507 c -0.41899,-0.13607 -1.11686,-0.48004 -1.55081,-0.76438 -1.15222,-0.75496 -6.14126,-0.74729 -6.97885,0.0111 -0.41871,0.37892 -1.06232,0.52772 -2.28272,0.52772 -1.51803,0 -1.97484,-0.16258 -4.27602,-1.52177 -1.41702,-0.83697 -2.68255,-1.52177 -2.81227,-1.52177 -0.12973,0 -1.08659,-0.78822 -2.12635,-1.75161 -2.89086,-2.67848 -3.01362,-2.71425 -4.27164,-1.24454 -1.14772,1.34085 -1.83954,1.50716 -3.4454,0.82823 -1.81648,-0.76796 -5.5131,-5.53856 -5.5131,-7.11481 0,-0.75132 -0.86289,-2.20419 -1.30911,-2.20419 -0.2257,0 -0.79842,0.22272 -1.27271,0.49493 -0.9347,0.53644 -0.75882,0.58661 -4.04525,-1.15405 -0.48599,-0.2574 -1.64747,-0.68562 -2.58107,-0.95159 -1.12055,-0.31923 -1.85525,-0.7244 -2.16174,-1.19217 -0.25536,-0.38972 -0.72961,-0.79279 -1.05389,-0.89572 -0.66361,-0.21062 -1.41945,-1.77851 -1.41945,-2.94449 0,-0.98808 1.46028,-3.02011 3.26227,-4.53957 1.10766,-0.93399 1.79286,-1.94253 3.19727,-4.70604 0.98311,-1.93451 1.78748,-3.82585 1.78748,-4.20296 0,-0.46844 -0.6102,-1.24357 -1.92603,-2.44663 -1.05931,-0.96852 -2.281,-2.40476 -2.71485,-3.19163 -1.19178,-2.16151 -2.47333,-2.45226 -5.29132,-1.20042 -0.93609,0.41584 -2.23215,0.86747 -2.880128,1.00361 -0.647976,0.13615 -2.105934,0.60185 -3.239903,1.0349 -1.133959,0.43304 -2.658186,0.95804 -3.38717,1.16668 -0.728974,0.20863 -2.31947,0.7158 -3.534437,1.12705 -4.844415,1.63975 -10.201842,2.66444 -12.70331,2.42966 -2.1472,-0.20151 -2.73424,0.0849 -3.091568,1.50868 -0.254947,1.0158 0.324556,2.01678 2.311944,3.9934 1.688793,1.67964 3.610446,2.59037 5.465742,2.59037 1.291266,0 3.408276,2.83446 2.819122,3.77452 -0.592773,0.94585 -2.321585,0.62812 -4.52163,-0.83102 -0.242991,-0.16116 -0.773156,-0.43046 -1.178142,-0.59843 -2.842254,-1.17885 -6.092633,-4.26668 -7.396723,-7.02678 -0.810104,-1.7146 -0.872544,-2.03503 -0.584145,-2.99764 0.177612,-0.59279 0.322919,-1.15994 0.322919,-1.2603 0,-0.26645 -3.436407,-1.95819 -3.977627,-1.95819 -0.649668,0 -3.047174,-1.25493 -5.356851,-2.80395 -1.082149,-0.72576 -2.13058,-1.31957 -2.329844,-1.31957 -0.382866,0 -4.319583,-2.53046 -5.926554,-3.80951 -0.522262,-0.41569 -1.556733,-1.21969 -2.29882,-1.78667 -0.742087,-0.56698 -1.920095,-1.52791 -2.617799,-2.13539 -1.489194,-1.29662 -2.962737,-1.46584 -4.516219,-0.51867 -0.802668,0.4894 -0.957237,0.75984 -0.957237,1.67476 0,2.70449 1.30753,7.38441 2.607858,9.33404 l 0.759397,1.1386 -0.68538,0.55498 c -0.376966,0.30525 -0.844714,0.55499 -1.039447,0.55499 -1.372664,0 -3.77283,-5.15968 -4.315875,-9.27789 -0.580694,-4.40372 0.01336,-6.37672 2.165557,-7.19211 1.192447,-0.45178 1.278342,-1.06189 0.319647,-2.27056 -1.593936,-2.00958 -3.640737,-5.19652 -3.642674,-5.67178 -0.0011,-0.26179 -0.265277,-0.87361 -0.587128,-1.35959 -0.350271,-0.52889 -0.585971,-1.38201 -0.58714,-2.1251 -0.0011,-0.68282 -0.189445,-1.80942 -0.41861,-2.50356 -0.702791,-2.12867 -1.033726,-4.4011 -0.969805,-6.65943 0.0521,-1.84002 -0.02327,-2.21943 -0.512555,-2.57858 -0.621493,-0.45625 -1.520164,-0.31068 -2.224479,0.36032 -0.550359,0.52434 -0.478424,3.59977 0.111443,4.76461 0.219825,0.43409 0.576953,1.49344 0.793628,2.3541 0.484291,1.92376 0.195391,2.52237 -1.278297,2.6486 l -1.049911,0.09 -0.345184,-1.70989 c -0.189857,-0.94044 -0.598627,-2.71298 -0.908389,-3.93896 -1.096644,-4.34048 -0.63189,-5.8683 2.382177,-7.83107 3.270094,-2.12949 3.069271,-1.86829 3.277664,-4.26292 0.590746,-6.78814 1.353828,-11.11904 2.11317,-11.99338 0.232326,-0.2675 0.931198,-1.51259 1.55307,-2.76689 0.822238,-1.65843 1.042297,-2.36889 0.806709,-2.60447 -0.235589,-0.23559 -0.513367,-0.21951 -1.018285,0.059 -0.869861,0.47974 -4.683925,0.47622 -7.468671,-0.007 -1.133958,-0.19674 -2.790735,-0.44895 -3.681703,-0.56048 -1.071474,-0.13412 -2.058032,-0.50195 -2.913845,-1.08639 -0.71164,-0.48598 -1.570903,-1.04377 -1.909475,-1.23952 -0.33856,-0.19574 -0.750369,-0.53318 -0.915124,-0.74985 -0.164755,-0.21668 -0.609604,-0.60746 -0.988551,-0.86839 -0.673023,-0.46342 -3.334014,-3.51401 -6.471291,-7.41876 -0.860254,-1.0707 -1.741181,-1.94673 -1.957611,-1.94673 -0.470508,0 -2.095815,-1.79003 -2.348669,-2.58671 -0.09841,-0.31002 -0.709581,-0.99013 -1.358192,-1.51137 -1.1375203,-0.91414 -1.5905961,-1.59428 -2.9600093,-4.44347 -0.3503712,-0.72898 -0.7787115,-1.50289 -0.951871,-1.7198 -0.3761865,-0.47123 -1.9664157,-4.37013 -1.9664157,-4.8212 0,-0.17385 -0.2492585,-0.86077 -0.5539102,-1.5265 -0.9273693,-2.02645 -1.7563644,-6.04206 -1.9524338,-9.45743 -0.1023038,-1.78194 -0.3120212,-4.24156 -0.4660558,-5.46583 -0.3076574,-2.44538 0.078592,-8.404 0.6091031,-9.39517 0.1710667,-0.31963 0.4919045,-1.61725 0.7129765,-2.88358 0.5496243,-3.14829 2.1118341,-7.12817 3.9602497,-10.08911 1.1895299,-1.90547 4.4376485,-5.342087 6.0138965,-6.362903 0.609225,-0.394549 1.8051,-1.348941 2.657495,-2.120871 0.852384,-0.771929 2.010699,-1.590155 2.574016,-1.818278 0.563317,-0.228124 2.083781,-1.205886 3.378799,-2.172804 2.418222,-1.805538 4.542435,-2.752275 6.71662,-2.993507 4.503584,-0.499684 6.702972,-0.615388 14.786234,-0.777866 2.288233,-0.046 7.265788,0.244274 8.479207,0.49447 0.520281,0.10728 1.513897,0.381773 2.208038,0.609996 0.694141,0.228223 2.031939,0.41495 2.97289,0.41495 0.943733,0 2.478502,0.264123 3.422982,0.589073 0.941696,0.32399 2.122175,0.590646 2.623297,0.592569 1.655166,0.0063 4.015891,0.819654 6.126746,2.110751 1.144623,0.700107 3.003191,1.760623 4.130136,2.356705 1.126946,0.596081 2.268541,1.273527 2.536891,1.505437 0.268339,0.23191 1.150601,0.795427 1.960571,1.252261 0.809982,0.456833 2.533017,1.711707 3.82898,2.788607 1.295953,1.0769 3.186325,2.45516 4.200803,3.0628 1.014489,0.60764 2.636523,1.88944 3.604513,2.84846 0.96799,0.95902 1.876257,1.74366 2.018358,1.74366 0.142112,0 0.574482,-0.24634 0.96081,-0.54742 1.02836,-0.80143 2.476254,-1.50009 4.454993,-2.14968 1.505392,-0.4942 2.309518,-0.55316 5.772572,-0.42332 2.21295,0.0829 4.42117,0.22648 4.90715,0.31891 0.48598,0.0924 2.20903,0.28899 3.82897,0.43683 1.61995,0.14783 3.87317,0.54048 5.00712,0.87255 1.13397,0.33207 3.18837,0.88286 4.56532,1.22397 1.37696,0.34112 2.96745,0.89066 3.53443,1.22119 0.56699,0.33054 2.36224,1.03057 3.98946,1.55563 2.5329,0.8173 3.33187,1.24582 5.55306,2.97834 1.42697,1.11303 3.58586,2.92128 4.79754,4.01833 1.21169,1.09707 2.68906,2.24695 3.28303,2.55531 0.59399,0.30834 1.94149,1.38131 2.99447,2.38434 1.05296,1.00305 2.66564,2.41553 3.58374,3.13886 0.91808,0.72334 2.30128,2.13259 3.07378,3.13167 0.77248,0.99909 1.96401,2.42727 2.64782,3.17373 0.68382,0.74648 1.50733,1.87308 1.83001,2.50356 0.32269,0.6305 1.82608,2.83468 3.34086,4.89819 3.11789,4.2473 5.40935,7.6397 8.23283,12.18834 1.90427,3.06778 2.7332,3.96012 3.21049,3.45612 0.13095,-0.13828 0.4465,-1.68564 0.70124,-3.43858 0.67199,-4.6244 3.13154,-11.698 5.05096,-14.52643 0.99863,-1.47155 4.23338,-4.16332 6.0289,-5.0169 1.71176,-0.81374 3.10919,-1.75311 4.56531,-3.06886 0.486,-0.43914 1.87767,-1.2166 3.09264,-1.72771 1.21497,-0.5111 2.73918,-1.22889 3.38717,-1.59508 1.1611,-0.65617 2.1241,-0.97759 6.77433,-2.26099 2.87042,-0.79221 7.37344,-1.04361 10.60331,-0.592 1.29596,0.18122 3.88052,0.46187 5.74346,0.62368 3.30215,0.28682 5.53647,0.79687 8.8361,2.01709 0.89096,0.32948 2.15011,0.73411 2.79809,0.89918 0.64798,0.16507 2.70237,1.22083 4.56531,2.34613 1.86294,1.12531 4.4475,2.67276 5.74347,3.43879 1.29595,0.76602 2.68764,1.6844 3.09262,2.04082 0.405,0.35644 2.39003,1.89212 4.4112,3.41262 4.87163,3.66486 10.30443,9.2159 11.82098,12.07828 0.22503,0.4247 1.04598,1.55131 1.82436,2.50356 0.77838,0.95225 1.95907,2.65915 2.62377,3.79312 0.6647,1.13397 1.60179,2.51601 2.08242,3.07121 0.48063,0.5552 1.06162,1.45881 1.2911,2.00801 0.22946,0.5492 0.95076,1.57737 1.60287,2.28482 0.65211,0.70747 1.83072,2.60332 2.61912,4.21301 0.7884,1.60968 2.36999,4.35774 3.51466,6.10678 1.14467,1.74904 2.09002,3.456 2.10078,3.79323 0.0111,0.33725 0.40915,1.27587 0.8853,2.08586 1.09756,1.867 4.10224,8.07473 4.10224,8.47526 0,0.16604 0.51852,1.20123 1.15226,2.30045 0.63375,1.0992 1.24926,2.30534 1.3678,2.68029 0.11855,0.37496 0.51129,1.07937 0.87276,1.56535 0.69249,0.93101 1.35166,2.31048 1.86321,3.89916 0.16891,0.52457 0.68382,1.51864 1.14425,2.20901 0.87919,1.31834 2.05601,4.1828 3.54086,8.61865 0.48804,1.45795 1.43312,4.21876 2.10016,6.13514 0.66707,1.91636 1.21291,3.83821 1.21299,4.27077 8e-5,0.43256 0.28117,1.51545 0.62465,2.40642 2.01466,5.22602 1.88203,9.50993 -0.47423,15.31589 -1.6297,4.01571 -3.58091,7.06787 -4.51972,7.06997 -0.68365,0.001 -2.10485,0.91175 -3.14601,2.01486 -0.66436,0.70389 -1.13115,0.92941 -1.92377,0.92941 -0.57562,0 -1.20446,0.1579 -1.39744,0.35087 -0.27148,0.27148 -0.66804,0.26986 -1.75249,-0.007 -0.77089,-0.19692 -2.39567,-0.47496 -3.61064,-0.61785 -2.6468,-0.3113 -4.45583,-0.93013 -5.64563,-1.93129 -0.48365,-0.40697 -1.07619,-0.73994 -1.31675,-0.73994 -0.24057,0 -1.33087,-0.92778 -2.42291,-2.06175 -1.46633,-1.52264 -2.18727,-2.06175 -2.75707,-2.06175 -0.55997,0 -1.14828,-0.42406 -2.14528,-1.54632 -0.75554,-0.85048 -1.52244,-1.87767 -1.70422,-2.28266 -0.18177,-0.40499 -0.73361,-1.21947 -1.22631,-1.80996 -0.49269,-0.59049 -1.1995,-1.51827 -1.57067,-2.06175 -0.37118,-0.54348 -1.49752,-2.11474 -2.50299,-3.4917 -1.00547,-1.37696 -2.0272,-2.78604 -2.2705,-3.13129 -1.79616,-2.54874 -8.9189,-10.27352 -13.39035,-14.52211 -1.28956,-1.22529 -2.61497,-2.55119 -2.94536,-2.94643 -2.35981,-2.82307 -12.90977,-12.42868 -16.14922,-14.70367 -1.00603,-0.7065 -2.42557,-1.77451 -3.15455,-2.37336 -1.34362,-1.10378 -6.35707,-4.44184 -6.67122,-4.44184 -0.0942,0 -1.0505,-0.58232 -2.12526,-1.29405 -1.74656,-1.15661 -4.06712,-2.34562 -9.17023,-4.6986 -0.89098,-0.41082 -1.95131,-0.94394 -2.3563,-1.18473 -3.66753,-2.18052 -10.89274,-4.17726 -14.32524,-3.95887 -1.33254,0.0848 -1.42532,0.14153 -1.33016,0.81371 0.0562,0.39742 0.47808,1.52402 0.93738,2.50356 0.45931,0.97954 1.22736,2.90759 1.70681,4.28454 0.47944,1.37696 1.13443,3.10528 1.45554,3.84072 0.93022,2.13047 1.05567,3.10757 0.53341,4.15448 -0.25556,0.51226 -0.46465,1.13038 -0.46465,1.37358 0,0.2432 0.84404,1.71392 1.87565,3.26828 1.03161,1.55435 1.97625,3.14924 2.09918,3.54418 0.29382,0.94391 2.65429,4.65044 3.6421,5.71902 0.42754,0.46249 1.50633,1.34381 2.3973,1.95849 1.83206,1.2639 2.83399,2.287 4.83097,4.93296 1.53814,2.03802 2.52339,4.59265 3.10729,8.05678 0.34655,2.05593 0.32455,2.46665 -0.26714,4.98691 -0.35463,1.51055 -0.9003,3.2473 -1.21259,3.85944 -0.31229,0.61213 -0.5678,1.24951 -0.5678,1.41639 0,0.28951 -1.73455,3.00274 -3.46186,5.41511 -0.99555,1.39041 -6.17163,6.24373 -9.35048,8.76743 -2.88039,2.28677 -6.29482,5.16326 -7.00821,5.90408 -0.29063,0.30181 -1.19151,0.88477 -2.00196,1.29545 -0.81045,0.41069 -1.54583,0.93508 -1.63418,1.16532 -0.0884,0.23023 -0.4466,0.50319 -0.79612,0.60657 -0.34953,0.1033 -1.10258,0.5033 -1.67346,0.88875 -1.14019,0.76983 -4.59946,1.54016 -6.37415,1.41941 -0.62119,-0.0423 -3.16886,-0.15565 -5.66148,-0.25197 -2.49261,-0.0963 -5.0109,-0.2778 -5.59618,-0.40329 -1.89191,-0.40562 -2.19398,-0.19376 -2.00452,1.40594 0.0912,0.7697 0.55957,2.24781 1.0409,3.2847 0.85576,1.8434 1.18214,3.09761 1.84717,7.09816 0.30199,1.81664 0.27865,2.05286 -0.29442,2.98012 -0.34234,0.5539 -0.62242,1.22035 -0.62242,1.48098 0,0.26064 -0.29822,0.66571 -0.66271,0.90019 -0.78441,0.50458 -5.60829,0.86351 -6.72615,0.50046 z m 4.66304,-3.34396 c 0.76667,-0.60599 1.06139,-2.44346 0.69257,-4.31811 -0.32958,-1.67519 -1.79609,-5.6288 -2.34824,-6.33071 -0.13924,-0.177 -0.47676,-1.00745 -0.75006,-1.84546 -0.56988,-1.74733 -0.76683,-1.94266 -2.37913,-2.35955 -1.98721,-0.51383 -2.74375,-0.44686 -3.15272,0.2791 -0.54209,0.96226 -0.43419,6.6635 0.17411,9.20029 0.99559,4.15198 1.03877,4.24871 2.3053,5.16619 1.14377,0.82854 1.32216,0.86749 3.15187,0.68822 1.06672,-0.10453 2.10455,-0.32051 2.3063,-0.47997 z m -16.91907,-8.79162 c 0.0404,-6.34671 -0.0393,-8.83298 -0.29269,-9.13836 -0.19148,-0.23074 -0.85358,-0.59757 -1.47131,-0.81519 -0.61773,-0.21763 -1.41009,-0.65742 -1.76079,-0.97732 -0.8938,-0.81528 -1.66788,-0.47355 -2.67799,1.18225 -1.08456,1.77782 -1.68242,3.31384 -2.12565,5.46122 -0.19534,0.94631 -0.6054,2.27172 -0.91126,2.94536 -0.30587,0.67363 -0.55903,1.50886 -0.56259,1.85608 -0.0111,1.07721 1.84613,4.00911 3.09363,4.88388 4.64662,3.25832 5.02439,3.47883 5.82641,3.40108 l 0.82676,-0.0802 z m 6.51698,7.51965 c 0.58666,-0.58666 0.585,-1.82959 -0.007,-4.73927 -0.25804,-1.2697 -0.51408,-3.36889 -0.56899,-4.66486 -0.18953,-4.47327 -0.60552,-5.74346 -1.88097,-5.74346 -0.96918,0 -1.28415,1.40239 -1.35611,6.038 -0.0377,2.42993 -0.1675,4.97509 -0.28839,5.65592 -0.34129,1.92211 -0.0161,2.69364 1.40776,3.34003 1.51917,0.68965 2.09279,0.71386 2.69303,0.11364 z m -20.26567,-5.57516 c 0.62045,-1.15475 2.186,-5.62869 3.19505,-9.13062 0.28006,-0.97198 0.84135,-2.60795 1.24731,-3.6355 l 0.7381,-1.86829 -0.97257,-1.00345 c -0.53492,-0.55189 -1.26006,-1.00344 -1.61142,-1.00344 -0.35136,0 -0.95493,-0.24089 -1.34127,-0.5353 -1.03982,-0.79244 -2.49782,-1.30941 -3.12839,-1.10928 -1.0261,0.32567 -4.22556,7.8165 -4.40983,10.32464 -0.11859,1.61408 -0.0213,1.99909 1.06781,4.22329 0.65906,1.34603 1.60855,3.04361 2.10999,3.77241 1.18901,1.72818 2.16396,1.71737 3.10522,-0.0344 z m -9.77549,-6.90006 c 0.54178,-0.59866 0.90695,-1.77275 1.38085,-4.43959 0.15833,-0.89097 0.5959,-2.28265 0.97237,-3.09262 0.37649,-0.80997 0.84347,-1.96787 1.03773,-2.5731 0.19427,-0.60523 0.47609,-1.17635 0.62627,-1.26915 0.15018,-0.0928 0.27305,-0.6067 0.27305,-1.14196 0,-0.78667 -0.27983,-1.23492 -1.46007,-2.3389 -0.80304,-0.75114 -1.7147,-1.36572 -2.02593,-1.36572 -0.62472,0 -2.30366,2.06469 -3.90672,4.80432 -1.91836,3.27849 -2.18833,3.66056 -3.58758,5.07742 -0.77433,0.78407 -1.4902,1.75365 -1.59084,2.15463 -0.25851,1.02999 1.0351,2.10084 3.57376,2.95837 1.11573,0.37686 2.43683,0.93416 2.93579,1.23842 1.12135,0.6838 1.14164,0.68367 1.77132,-0.0121 z m 59.16726,-3.77076 c 0.67771,-0.48158 1.59332,-0.96329 2.03472,-1.07048 0.44138,-0.10721 0.97889,-0.53151 1.19445,-0.94291 0.21556,-0.41141 0.76498,-0.99274 1.22093,-1.29185 0.45596,-0.29911 1.78774,-1.4519 2.95949,-2.56178 2.97131,-2.81438 4.69344,-4.19561 7.81306,-6.26644 2.5984,-1.72484 3.815,-2.92071 6.31509,-6.20755 3.00808,-3.95467 5.30184,-9.26205 5.11588,-11.83728 -0.11721,-1.62304 -0.80995,-1.8207 -1.66122,-0.47397 -0.33778,0.53439 -0.96889,1.40338 -1.40246,1.93111 -0.64662,0.78702 -0.81462,1.34294 -0.93461,3.09262 -0.23403,3.41268 -1.0394,4.43905 -3.76339,4.79618 -1.45855,0.19122 -1.50462,0.17309 -2.5772,-1.01412 -0.60064,-0.66484 -1.09209,-1.48886 -1.09209,-1.83114 0,-0.34229 -0.19377,-1.23655 -0.43062,-1.98728 -1.03442,-3.27883 -1.31835,-5.76028 -1.13169,-9.89007 0.21333,-4.71935 0.54226,-5.48732 2.81636,-6.57553 0.87244,-0.41749 1.39623,-0.85976 1.39532,-1.17816 -0.002,-0.64359 -0.97026,-1.77147 -2.55862,-2.97994 -1.00247,-0.7627 -1.25174,-1.14499 -1.32542,-2.03269 -0.0805,-0.96972 -0.24057,-1.16685 -1.41616,-1.74387 -1.98017,-0.97196 -4.41319,-0.90765 -6.80723,0.17991 -1.03487,0.47012 -2.21293,1.11262 -2.61792,1.42777 -0.40499,0.31515 -1.11458,0.66545 -1.57686,0.77847 -0.46229,0.113 -1.52464,0.71084 -2.36078,1.32852 -0.83613,0.61769 -1.80828,1.21449 -2.16033,1.32622 -0.35205,0.11175 -1.06038,0.69385 -1.57409,1.29358 -2.36974,2.76663 -4.94886,5.18571 -6.0255,5.65161 -2.25225,0.97463 -7.32025,5.99747 -8.83867,8.75991 -1.14323,2.07984 -1.22037,2.82148 -0.7138,6.86237 0.61335,4.89245 1.52391,7.40571 5.97006,16.47805 2.1689,4.4256 3.25326,5.6256 5.85127,6.4752 1.46666,0.47963 2.40129,0.58312 4.45306,0.49308 2.31065,-0.10141 2.73254,-0.21043 3.82897,-0.98954 z m -14.5764,-1.05891 c 0.0564,-0.29554 -0.0976,-0.75944 -0.34215,-1.03087 -0.24457,-0.27145 -0.5399,-0.89115 -0.65629,-1.37714 -0.11637,-0.48598 -0.71431,-1.75313 -1.32872,-2.81587 -0.61441,-1.06274 -1.21064,-2.32189 -1.32494,-2.7981 -0.11429,-0.47621 -0.58332,-1.5948 -1.04228,-2.48578 -1.27578,-2.47667 -2.32361,-4.92065 -2.32361,-5.41963 0,-0.24696 -0.29821,-1.21608 -0.6627,-2.15364 -0.57452,-1.47779 -0.66271,-2.25333 -0.66271,-5.82813 0,-5.12533 0.21628,-5.64043 4.20942,-10.02568 2.70705,-2.97288 4.04751,-4.14692 7.09432,-6.21362 0.74874,-0.50786 1.66352,-1.33625 2.03286,-1.84084 0.36933,-0.50461 0.83947,-0.91746 1.04473,-0.91746 0.20527,0 0.89714,-0.54491 1.5375,-1.21091 2.28264,-2.37405 5.73575,-4.91892 8.49723,-6.26231 1.54086,-0.74957 3.07808,-1.36287 3.41605,-1.36287 0.33797,0 0.98023,-0.2704 1.42724,-0.60089 0.75139,-0.55553 0.97231,-0.57613 2.92658,-0.27292 1.16261,0.18039 2.24946,0.24415 2.41523,0.1417 0.65984,-0.4078 0.22691,-1.45306 -1.26122,-3.0451 -0.85944,-0.91944 -2.01918,-2.22672 -2.5772,-2.90505 -1.32146,-1.60639 -7.21455,-6.784 -8.90478,-7.82366 -0.72426,-0.44549 -1.51968,-0.80997 -1.76762,-0.80997 -0.24792,0 -1.09309,-0.49703 -1.87815,-1.10452 -2.82212,-2.18379 -7.88336,-5.4974 -9.13525,-5.9809 -0.35352,-0.13653 -1.48012,-0.82897 -2.50356,-1.53873 -1.02344,-0.70977 -2.25842,-1.5004 -2.74441,-1.75697 -0.48598,-0.25655 -1.82965,-0.9748 -2.98593,-1.5961 -6.55905,-3.52439 -7.14084,-3.76689 -12.47722,-5.20079 -3.57487,-0.96056 -5.77365,-1.31814 -10.16151,-1.65248 -3.80538,-0.28997 -9.70307,-0.11714 -10.51031,0.30798 -0.27284,0.14368 -0.86927,0.2625 -1.32541,0.26402 -1.10705,0.003 -6.12521,1.03466 -7.60965,1.56337 -4.43765,1.58053 -9.05897,4.72208 -10.942395,7.43856 -2.69274,3.88376 -3.959949,5.91185 -4.11208,6.58112 -0.09518,0.41852 -0.417576,1.62247 -0.716539,2.67544 -1.006296,3.54432 -1.214866,6.08036 -0.873334,10.61928 0.173928,2.31155 0.391415,4.54585 0.483299,4.96514 0.738892,3.3717 2.928896,8.90003 4.169121,10.5243 1.035395,1.35602 1.056301,1.36658 1.322118,0.66778 0.16967,-0.4461 0.1581,-1.03849 -0.0311,-1.59364 -1.053532,-3.09084 -1.371287,-10.92996 -0.65664,-16.1995 0.153789,-1.13396 0.438504,-3.38717 0.6327,-5.00712 0.1942,-1.61995 0.46304,-3.0855 0.59744,-3.25678 0.13439,-0.17127 0.43541,-1.0328 0.66894,-1.91448 0.68541,-2.58786 0.92107,-2.9775 3.03464,-5.01755 1.63936,-1.58234 2.42068,-2.09321 4.22079,-2.75978 4.08578,-1.51295 7.86102,-2.14507 9.91529,-1.66022 1.04422,0.24647 1.69949,0.24985 2.45525,0.0127 0.56698,-0.17792 2.29001,-0.44614 3.82896,-0.59601 1.53896,-0.14988 3.34199,-0.35051 4.00674,-0.44586 0.93464,-0.13404 1.53558,-0.01 2.65083,0.54769 0.7932,0.39657 1.77354,0.8019 2.17853,0.90073 1.32262,0.32279 3.74114,2.74521 4.69496,4.70255 1.30216,2.67212 1.74007,4.79988 2.07378,10.0761 0.49344,7.80212 0.35225,12.04312 -0.56876,17.08311 -0.14802,0.80998 -0.42092,2.40047 -0.60646,3.53443 -0.72904,4.45573 -1.29811,6.20556 -3.14587,9.67313 -1.02222,1.91832 -1.85858,3.58983 -1.85858,3.71445 0,0.12463 -0.5633,0.82315 -1.25178,1.55226 -1.1017,1.16672 -1.51663,1.38648 -3.46081,1.83292 -1.21495,0.27899 -2.70873,0.69489 -3.31948,0.92425 -1.88353,0.70729 -4.15399,0.50683 -8.36305,-0.73838 -3.82289,-1.13095 -8.49538,-3.27201 -10.11529,-4.63507 -0.45059,-0.37914 -1.11519,-0.68935 -1.47691,-0.68935 -0.60918,0 -0.64665,0.10319 -0.50833,1.39905 0.29799,2.79203 1.80787,5.8929 4.33831,8.90972 2.24504,2.67655 2.93671,3.24713 6.39219,5.27317 0.83984,0.49242 1.63509,1.08357 1.76721,1.31366 0.13214,0.23007 0.90295,0.7885 1.71293,1.24095 2.4988,1.39577 9.99715,5.1238 10.31403,5.12792 0.16489,0.002 0.78743,0.33526 1.38342,0.74024 0.596,0.40499 1.28614,0.73634 1.53367,0.73634 0.24752,0 2.34207,0.91826 4.65456,2.04056 2.31251,1.12231 4.80098,2.19898 5.52996,2.39259 3.23742,0.85984 5.43296,1.19623 9.37068,1.43577 2.31897,0.14107 4.26723,0.30741 4.32946,0.36964 0.0622,0.0622 0.81434,0.0425 1.67136,-0.0438 1.20023,-0.12082 1.58176,-0.28031 1.66072,-0.69421 z m 122.97092,-7.56272 c 3.2626,-1.09158 5.80536,-3.44363 7.02693,-6.49981 2.3208,-5.80647 2.29986,-5.72554 2.29965,-8.89522 -1.7e-4,-2.75616 -0.11478,-3.37745 -1.3435,-7.28394 -0.73882,-2.34893 -1.51709,-4.86722 -1.72952,-5.5962 -0.21242,-0.72897 -0.67657,-2.12066 -1.03146,-3.09263 -0.35486,-0.97197 -1.03925,-3.07151 -1.52087,-4.66564 -0.4816,-1.59414 -1.06017,-3.18464 -1.28572,-3.53444 -0.22553,-0.3498 -0.95926,-1.89516 -1.63048,-3.4341 -1.09822,-2.51791 -2.62456,-5.68079 -4.33521,-8.98336 -0.33564,-0.64799 -1.31322,-2.67495 -2.17241,-4.50437 -0.85918,-1.82943 -1.72664,-3.46274 -1.92767,-3.62959 -0.20105,-0.16686 -0.71918,-1.2546 -1.15139,-2.41724 -0.93789,-2.52287 -1.97934,-4.63138 -3.08088,-6.23754 -1.12716,-1.64353 -3.93315,-6.5782 -4.39758,-7.73369 -0.21211,-0.52774 -0.91841,-1.5085 -1.56956,-2.17945 -0.65115,-0.67097 -1.97645,-2.55866 -2.94512,-4.19487 -0.96868,-1.63622 -2.58464,-4.10154 -3.59102,-5.4785 -1.00639,-1.37695 -2.00341,-2.82923 -2.2156,-3.22728 -1.67432,-3.14077 -7.91472,-9.81868 -11.5794,-12.39118 -2.47199,-1.73528 -3.71605,-2.61418 -10.34352,-7.30751 -4.45622,-3.15571 -8.123,-4.96415 -11.42484,-5.63466 -5.80719,-1.17929 -9.15786,-1.55335 -14.22511,-1.58803 -4.71695,-0.0323 -5.51278,0.0343 -7.21614,0.60343 -1.05296,0.35187 -2.98833,0.90269 -4.30082,1.22406 -2.8002,0.68567 -6.26832,2.41472 -8.95331,4.46371 -1.05297,0.80356 -2.91211,1.98041 -4.13144,2.61525 -2.48404,1.29329 -6.22796,4.91444 -6.59562,6.37932 -0.11547,0.46007 -0.44973,1.17593 -0.74281,1.5908 -0.29307,0.41486 -0.63032,1.21819 -0.74944,1.78517 -0.11912,0.56699 -0.60625,2.15749 -1.0825,3.53444 -1.364,3.94361 -2.19923,11.42919 -1.65964,14.87409 0.15225,0.97197 0.38266,2.82755 0.512,4.12351 0.25576,2.56228 0.77162,4.23398 1.17366,3.8033 0.13805,-0.14788 0.46751,-0.99785 0.73215,-1.88882 0.75055,-2.52688 3.43665,-8.07643 4.73826,-9.78939 0.6479,-0.85264 2.00645,-2.37199 3.019,-3.37634 1.73276,-1.71871 2.23638,-2.75465 1.54648,-3.18104 -0.4887,-0.30202 -0.33488,-1.53235 0.4255,-3.40369 0.80868,-1.99016 1.85807,-3.46006 4.26285,-5.97106 2.67093,-2.7889 4.05529,-3.5816 10.48027,-6.00109 3.12225,-1.17576 8.55785,-1.54411 14.28502,-0.96805 1.53895,0.15479 4.71479,0.42246 7.05743,0.59482 4.63094,0.34073 5.70206,0.65578 5.85347,1.72169 0.14968,1.05371 -0.24781,1.21144 -1.93868,0.76929 -1.37677,-0.36002 -3.26117,-0.56313 -12.0031,-1.29371 -1.59478,-0.13329 -3.59375,-0.034 -6.18526,0.30718 -4.43144,0.58342 -4.66606,0.63953 -7.21614,1.72609 -1.05297,0.44866 -2.51093,1.05643 -3.23991,1.3506 -1.94977,0.78681 -3.57958,2.02069 -5.41816,4.10192 -2.00691,2.27179 -2.89921,3.74188 -2.65594,4.37582 0.25838,0.6733 0.93119,0.60148 2.57806,-0.27522 1.31487,-0.69996 1.75419,-0.76348 5.88838,-0.85144 3.87291,-0.0824 4.88968,-5.9e-4 7.63944,0.61532 2.04194,0.45732 3.67594,1.0205 4.58673,1.58092 1.23585,0.76043 2.20884,1.06505 5.3089,1.6621 0.38337,0.0738 1.16722,0.65799 1.74191,1.29816 0.57467,0.64015 1.20205,1.16391 1.39417,1.16391 0.1921,0 0.93248,0.42309 1.64525,0.94018 2.68414,1.94723 5.83135,4.00101 9.39572,6.1314 2.02494,1.21028 5.06591,3.16625 6.75771,4.34661 1.69181,1.18036 3.64774,2.43164 4.34651,2.78063 0.69879,0.34898 2.03169,1.2857 2.962,2.08159 0.93031,0.79588 2.65648,2.16756 3.83591,3.04816 1.17943,0.8806 3.3931,2.75688 4.91927,4.1695 1.52615,1.41262 3.62316,3.32703 4.65999,4.25425 1.79113,1.60175 3.0475,3.24774 6.58176,8.62293 0.85212,1.29595 1.93581,2.88645 2.40819,3.53444 1.94652,2.67009 3.45547,7.08262 2.53457,7.41167 -0.17308,0.0619 -0.84481,-0.27158 -1.49274,-0.74093 -0.96832,-0.70144 -1.29558,-1.21141 -1.83826,-2.8645 -0.3631,-1.10612 -1.12798,-2.74639 -1.69971,-3.64504 -1.76858,-2.77984 -4.13448,-6.37726 -6.13086,-9.32218 -1.47598,-2.17726 -2.86225,-3.59206 -5.97618,-6.09913 -3.73867,-3.01007 -6.88501,-5.27015 -7.07386,-5.08129 -0.17203,0.17202 3.65371,5.39333 6.16412,8.41267 1.14486,1.37696 2.28074,2.96746 2.52419,3.53444 0.24345,0.56698 0.93802,1.75986 1.54352,2.65082 2.2898,3.36945 3.04459,4.65296 4.50338,7.65795 0.82573,1.70095 1.71987,3.42399 1.98696,3.82897 0.2671,0.40499 0.79334,1.79668 1.16942,3.09264 0.37609,1.29595 1.27361,3.81424 1.99451,5.59619 1.79659,4.44093 2.65061,7.48513 3.02074,10.7676 0.17247,1.52959 0.39038,3.26546 0.48424,3.85747 0.143,0.90198 0.0666,1.13209 -0.47131,1.41999 -0.67382,0.36061 -0.8992,0.26425 -2.65978,-1.13712 -0.61475,-0.48932 -0.71582,-0.78613 -0.6315,-1.85452 0.0552,-0.69958 0.11065,-1.80214 0.1233,-2.45011 0.0249,-1.28401 -1.10119,-5.84683 -2.46309,-9.97961 -0.47418,-1.43891 -0.86213,-2.74211 -0.86213,-2.896 0,-0.37465 -1.53111,-4.00923 -2.76508,-6.56379 -0.54775,-1.13397 -1.73352,-3.61576 -2.63504,-5.51508 -0.90152,-1.89934 -2.16643,-4.1671 -2.8109,-5.03949 -0.64447,-0.87238 -1.36053,-2.03794 -1.59124,-2.5901 -0.2307,-0.55217 -0.93608,-1.62792 -1.56751,-2.39057 -1.63441,-1.9741 -2.32805,-2.91478 -2.77022,-3.7569 -1.08956,-2.07506 -4.12804,-5.19699 -7.30995,-7.51068 -1.60749,-1.16887 -2.25097,-2.46752 -1.75835,-3.54869 0.42687,-0.93688 0.40558,-0.95755 -4.47814,-4.34631 -2.98713,-2.07275 -3.96963,-2.70378 -7.65618,-4.91733 -0.94427,-0.56698 -2.52646,-1.6009 -3.51597,-2.29759 -2.0521,-1.44484 -5.34652,-3.00406 -6.34717,-3.00406 -0.37171,0 -1.37333,-0.4798 -2.22583,-1.06622 -0.85638,-0.58908 -3.0789,-1.59425 -4.96654,-2.24618 l -3.41653,-1.17998 -5.30165,-0.0365 -5.30166,-0.0365 -2.20902,1.31313 c -2.67131,1.58791 -7.66244,6.54925 -9.64229,9.58472 -0.73961,1.13396 -1.9273,3.41522 -2.63928,5.06945 -1.17198,2.723 -1.28625,3.19698 -1.20718,5.00712 l 0.0874,1.99942 2.94535,0.0167 c 4.69234,0.0266 8.17665,0.59343 11.03751,1.79562 3.74454,1.57354 12.43419,5.85967 15.61803,7.70352 1.53895,0.89125 3.72589,2.1576 4.85986,2.81412 1.13395,0.65651 2.523,1.53065 3.08677,1.94253 1.53925,1.12459 5.50814,4.22781 7.6078,5.94846 1.02217,0.83765 2.48012,1.91296 3.2399,2.38958 0.75977,0.47662 2.65036,2.12045 4.2013,3.65296 1.55094,1.53251 3.14467,3.00977 3.54163,3.28281 0.39696,0.27304 2.18299,1.95438 3.96897,3.73633 1.78596,1.78194 3.90902,3.78952 4.71788,4.46127 0.80887,0.67174 1.86192,1.79834 2.34011,2.50356 0.4782,0.7052 2.41384,2.77343 4.30143,4.59606 1.88759,1.82263 3.86913,4.00956 4.40343,4.85984 0.53429,0.85029 1.44267,2.09268 2.0186,2.76086 1.65879,1.92446 2.72964,3.32786 4.44023,5.81915 1.94574,2.83374 4.98397,5.89161 6.76844,6.81218 0.72898,0.37606 1.91631,1.29136 2.63852,2.03397 0.7222,0.74262 1.50494,1.35021 1.73942,1.35021 0.23446,0 0.83644,0.30926 1.33772,0.68724 0.82897,0.62508 2.71526,1.07397 6.21306,1.47858 1.7526,0.20273 2.08746,0.16738 3.78009,-0.39893 z m -56.41963,-58.23108 c -3.20987,-3.83836 -6.32092,-6.77199 -8.59389,-8.10382 -1.11741,-0.65473 -2.5029,-1.51023 -3.0789,-1.90111 -0.576,-0.39088 -2.45542,-1.41854 -4.1765,-2.28368 -1.72108,-0.86514 -3.38402,-1.70874 -3.69543,-1.87464 -2.03313,-1.08319 -5.42701,-2.50837 -8.10102,-3.40186 -1.71422,-0.57278 -3.75522,-1.38088 -4.53554,-1.79578 -0.78034,-0.41491 -1.64378,-0.75438 -1.91875,-0.75438 -0.27497,0 -0.92664,-0.21286 -1.44814,-0.47302 -1.43474,-0.71574 -4.99438,-0.47318 -6.20641,0.42292 -1.14523,0.8467 -2.06181,0.73252 -2.64576,-0.32956 -0.42903,-0.78031 -0.41562,-0.84891 0.26768,-1.36939 2.1653,-1.64936 6.27485,-1.58484 9.8188,0.15414 1.73538,0.85152 7.19052,3.00412 9.63762,3.803 1.60741,0.52475 12.74935,6.08575 14.72681,7.35023 0.56699,0.36255 1.95866,1.19619 3.09263,1.85254 2.07774,1.20258 4.18949,3.23816 6.62232,6.38346 0.72636,0.93908 1.8861,2.11348 2.57719,2.60979 1.29096,0.92708 1.61294,1.78087 0.79064,2.09641 -0.8259,0.31693 -0.95719,0.21698 -3.13335,-2.38525 z m 35.30263,-12.75561 c -0.55586,-0.48804 -1.21038,-1.3827 -1.4545,-1.98813 -0.28743,-0.71282 -1.36214,-1.91152 -3.04947,-3.40127 -4.9648,-4.38342 -6.05147,-5.09566 -9.32551,-6.11219 -1.64989,-0.51227 -4.3915,-1.39174 -6.09245,-1.95436 -3.03882,-1.00516 -7.56459,-1.89725 -11.63419,-2.29324 -2.14738,-0.20896 -3.38717,-0.74844 -3.38717,-1.47387 0,-1.98212 7.71675,-0.80565 16.34678,2.49218 1.78193,0.68094 4.62352,1.6916 6.31462,2.2459 1.6911,0.5543 3.56501,1.30468 4.16424,1.66752 1.87805,1.13715 7.61177,6.75627 8.97854,8.79907 1.43475,2.14443 1.53267,2.46175 0.84151,2.72697 -0.64723,0.24837 -0.58119,0.27585 -1.7024,-0.70858 z m -181.701986,63.1917 c 0.610762,-0.23753 2.063031,-0.69067 3.22728,-1.00696 1.164238,-0.31629 2.974214,-0.98427 4.022167,-1.48441 1.047952,-0.50013 2.348591,-0.9975 2.890311,-1.10524 0.541721,-0.10776 1.600638,-0.50455 2.353145,-0.88179 0.752495,-0.37723 1.680287,-0.6944 2.06175,-0.7048 1.506728,-0.0411 3.99437,-0.75072 4.766614,-1.35977 0.447959,-0.35329 1.196619,-0.72628 1.663689,-0.82886 0.47986,-0.10542 1.19169,-0.63551 1.63657,-1.21879 0.85488,-1.1208 0.85484,-1.02588 0.002,-4.96795 -0.31298,-1.44746 -0.44114,-2.87301 -0.33229,-3.69595 0.11664,-0.88195 0.0507,-1.49088 -0.19326,-1.78229 -0.48571,-0.58037 -2.854886,-2.44199 -3.627686,-2.85051 -1.352493,-0.71495 -5.259487,-10.07732 -6.172974,-14.79236 -0.561336,-2.89734 -0.630499,-10.74211 -0.115562,-13.10687 0.728472,-3.3454 2.16106,-7.33602 3.053129,-8.50478 0.510005,-0.6682 1.58306,-2.19311 2.384559,-3.38867 0.80151,-1.19557 1.743251,-2.58725 2.092774,-3.09264 0.34953,-0.50538 1.52187,-1.44904 2.60519,-2.09701 1.08333,-0.64799 2.65293,-1.62383 3.48801,-2.16856 1.50678,-0.98287 2.39863,-1.30094 6.69666,-2.38827 2.38874,-0.6043 3.80513,-1.15626 3.80513,-1.4828 0,-0.11087 -0.27924,-0.4541 -0.62053,-0.7627 -0.3413,-0.30859 -0.90461,-1.11567 -1.25178,-1.7935 -0.34719,-0.67783 -1.16141,-1.59516 -1.80939,-2.03852 -0.64798,-0.44335 -1.74343,-1.19177 -2.43434,-1.66315 -0.6909,-0.47138 -2.00505,-1.12026 -2.92034,-1.44197 -0.91529,-0.32169 -2.32921,-0.9219 -3.14205,-1.3338 -1.2181,-0.61726 -1.71437,-0.71399 -2.82312,-0.55026 -0.73987,0.10921 -2.074199,0.18563 -2.965167,0.16971 -0.890978,-0.0159 -2.282655,0.10999 -3.092637,0.27979 -3.584208,0.75137 -5.765028,0.91976 -12.959604,1.00067 -7.387963,0.083 -7.73063,0.11286 -9.7197,0.8442 -3.250323,1.19509 -5.2258,2.08267 -6.230727,2.79948 -0.510985,0.36449 -1.046694,0.66271 -1.190454,0.66271 -0.14376,0 -1.338243,0.6627 -2.654415,1.47267 -1.316169,0.80999 -2.557262,1.47269 -2.757985,1.47269 -0.200722,0 -0.783042,0.31889 -1.294038,0.70865 -0.510996,0.38975 -1.635514,1.04944 -2.49893,1.46597 -0.863404,0.41652 -1.757622,1.02541 -1.987143,1.35309 -0.22951,0.3277 -0.667046,0.5958 -0.972299,0.5958 -0.305241,0 -0.629085,0.11988 -0.719644,0.26643 -0.09062,0.14653 -0.926769,0.69167 -1.858234,1.2114 -0.931466,0.51975 -1.958657,1.17259 -2.282645,1.45076 -0.323988,0.27817 -1.138657,0.66203 -1.810378,0.85304 -1.165384,0.33137 -1.763411,0.97978 -1.418438,1.53795 0.217988,0.35272 -0.542122,1.76673 -1.33585,2.48505 -1.016972,0.92034 -2.95883,5.11795 -3.270395,7.06945 -0.75028,4.69935 -1.437742,13.21721 -1.438165,17.81946 -3e-4,3.53181 0.109317,4.41128 0.981093,7.86845 0.634362,2.51569 1.258593,4.2921 1.76507,5.02295 0.430978,0.6219 0.788285,1.25615 0.794018,1.40944 0.01692,0.45326 1.806759,2.92509 3.163693,4.36921 1.437575,1.52994 1.652636,1.54122 5.072913,0.26624 1.052961,-0.39252 2.134944,-0.7837 2.404407,-0.8693 0.597314,-0.18974 2.308171,1.01823 2.308171,1.62972 0,0.57599 -1.161021,1.80444 -1.705391,1.80444 -0.885869,0 -3.301731,1.03904 -3.301731,1.42003 0,0.71192 1.795638,2.92056 2.8252,3.47502 0.552074,0.29731 1.00378,0.61903 1.00378,0.71492 0,0.2354 4.025217,3.22612 4.342047,3.22612 0.137982,0 1.172464,0.60858 2.298831,1.35239 2.462331,1.62606 5.486695,3.18464 8.085936,4.16705 3.113878,1.17691 3.022172,1.18652 4.189627,-0.4385 0.572935,-0.79748 1.141539,-1.76455 1.263569,-2.14904 0.122041,-0.38449 1.006518,-1.69849 1.965536,-2.92 0.958996,-1.22151 2.167261,-2.7959 2.685014,-3.49863 0.867624,-1.17762 1.022137,-1.26485 1.972249,-1.11348 1.030152,0.16413 2.061751,1.07507 2.061751,1.8206 0,0.21726 -0.563295,0.7893 -1.251781,1.27117 -1.836626,1.28551 -2.642378,2.12437 -3.743663,3.8975 -0.542189,0.87295 -1.312328,2.08064 -1.711436,2.68377 -0.399096,0.60311 -0.647976,1.29895 -0.553053,1.54631 0.227907,0.59393 2.726693,0.60446 4.234979,0.0178 z m 113.103576,-9.60559 c 0.20011,-0.3922 0.36781,-1.04444 0.37268,-1.44942 0.0116,-0.96556 0.25216,-1.29344 1.36846,-1.86523 1.17948,-0.60415 2.46287,-3.08635 2.45388,-4.74604 -0.008,-1.53846 -0.81369,-3.22936 -2.28711,-4.80201 -1.33742,-1.42748 -1.76747,-1.52249 -2.64814,-0.58506 -1.0943,1.16482 -1.52665,2.71295 -1.72434,6.17438 -0.15231,2.6666 -0.0877,3.74782 0.32185,5.38984 0.72917,2.92321 1.33883,3.45912 2.14272,1.88354 z m -65.89162,-3.18261 c 1.2433,-0.75015 1.41455,-0.82513 2.34975,-1.02881 0.83595,-0.18206 1.96393,-1.77909 4.29007,-6.07409 1.21218,-2.23815 1.55393,-3.18122 1.70773,-4.71258 0.10576,-1.05298 0.45139,-2.99582 0.76805,-4.31745 1.19768,-4.99849 1.56925,-11.82813 1.05507,-19.39273 -0.20831,-3.06451 -0.9435,-7.01728 -1.51331,-8.13619 -0.58408,-1.14696 -3.08293,-3.11808 -4.56594,-3.60167 -2.68772,-0.87644 -6.88081,-0.74337 -8.432,0.26759 -0.83987,0.54737 -2.06734,0.53792 -4.27004,-0.0328 -1.72971,-0.44821 -1.82191,-0.44095 -4.31329,0.33959 -1.40018,0.43867 -2.67832,0.89761 -2.84032,1.01986 -0.162,0.12226 -1.05713,0.36265 -1.98916,0.53422 -2.07382,0.38174 -2.67708,0.69137 -4.23988,2.17612 -0.84702,0.80471 -1.33104,1.58091 -1.57757,2.52989 -0.19562,0.75296 -0.60839,2.13658 -0.91727,3.07473 -0.3089,0.93814 -0.83829,3.58897 -1.17646,5.89073 -0.51475,3.5037 -0.58747,5.02412 -0.44663,9.33939 0.2167,6.64088 0.76856,9.31611 2.62161,12.70905 0.81334,1.4892 1.8315,2.89634 2.45086,3.38717 0.58275,0.46179 1.47909,1.24612 1.99188,1.74296 1.36519,1.32271 4.4988,2.9821 6.67988,3.53732 1.04742,0.26662 2.15246,0.61586 2.45567,0.77606 1.01745,0.53762 3.2565,0.79176 6.08234,0.69037 2.20332,-0.079 3.02425,-0.23314 3.82896,-0.71867 z m -9.4317,-27.94103 c -0.56699,-0.27594 -1.8425,-1.30013 -2.83449,-2.27595 -1.65218,-1.62528 -1.84608,-1.95178 -2.30922,-3.88852 -0.51684,-2.16134 -0.48265,-2.60565 0.35863,-4.66007 0.78212,-1.90992 1.49374,-2.74822 3.36532,-3.96434 l 1.76727,-1.14835 2.69797,0.17187 c 2.96564,0.18895 4.26639,0.65428 6.37968,2.28232 0.72898,0.56158 1.70738,1.31463 2.17422,1.67344 0.96484,0.74156 1.97557,2.75741 1.73516,3.46064 -0.3755,1.09828 -2.29983,3.58827 -2.85938,3.69989 -0.33451,0.0667 -1.00582,0.20985 -1.4918,0.31806 -0.48598,0.1082 -1.41377,0.22671 -2.06175,0.26335 -0.64799,0.0366 -1.32256,0.0887 -1.49905,0.11567 -0.39096,0.0598 -1.00451,1.34371 -1.00451,2.10207 0,0.30394 -0.34314,0.96041 -0.76253,1.45883 -0.89031,1.05807 -2.0337,1.1804 -3.65552,0.39109 z m 1.44939,-2.84399 c 0.18885,-0.22756 0.5043,-1.18848 0.70099,-2.13539 0.19669,-0.94691 0.46384,-1.88732 0.59368,-2.08981 0.29614,-0.46186 3.43235,-0.49378 4.4174,-0.045 1.27795,0.58229 3.55881,-1.13215 2.93886,-2.20905 -0.97122,-1.68709 -5.33242,-4.29942 -7.17774,-4.29942 -1.74179,0 -4.04246,2.02692 -5.24304,4.61917 -0.99537,2.14919 -0.74192,3.15317 1.27843,5.06394 1.71619,1.62309 1.96338,1.73178 2.49142,1.09553 z m 64.76951,-2.92613 c 0.11087,-0.96468 -1.1159,-4.95068 -2.16868,-7.0467 -0.3987,-0.79381 -0.72492,-1.70275 -0.72492,-2.01989 0,-0.77203 -0.96817,-2.62895 -1.72981,-3.31777 -0.60246,-0.54485 -0.64159,-0.54409 -2.01945,0.0385 -1.03594,0.43806 -1.54897,0.87856 -1.95267,1.67658 -1.23836,2.44799 -3.08335,0.35181 -3.11813,-3.54265 -0.009,-0.98673 -0.21339,-2.44467 -0.45463,-3.23989 -0.24123,-0.79524 -0.44329,-2.04231 -0.449,-2.77128 -0.006,-0.72897 -0.12696,-1.85559 -0.26944,-2.50356 -0.14247,-0.64798 -0.35072,-2.34724 -0.46278,-3.77613 -0.18077,-2.30528 -0.29962,-2.70347 -1.05491,-3.53443 -0.46814,-0.51505 -1.54894,-2.01009 -2.40175,-3.32232 -0.85281,-1.31223 -2.0273,-3.10153 -2.60998,-3.97624 -0.58266,-0.87471 -2.06666,-3.18088 -3.29776,-5.12482 -1.23111,-1.94394 -2.7425,-4.17719 -3.35865,-4.96277 -2.43008,-3.09832 -3.6601,-4.809 -4.2905,-5.96713 -1.0485,-1.92624 -3.82736,-5.4371 -5.5524,-7.015 -0.87238,-0.79797 -2.77902,-2.58728 -4.23697,-3.97625 -1.45796,-1.38895 -3.3798,-3.05137 -4.27078,-3.69424 -0.89097,-0.64287 -2.6289,-2.07644 -3.86207,-3.18572 -3.64952,-3.28285 -6.43306,-4.98475 -9.83387,-6.01257 -0.80998,-0.24481 -2.46675,-0.91159 -3.6817,-1.48174 -3.62628,-1.70174 -9.07795,-2.69837 -18.35712,-3.35594 -4.813361,-0.3411 -5.012826,-0.33246 -6.944376,0.30078 -2.244784,0.73593 -3.857612,1.62451 -3.857612,2.12536 0,0.32879 0.803125,1.22263 4.712579,5.2448 4.237459,4.35962 6.112259,6.49983 7.647509,8.73013 0.88523,1.28602 2.43875,3.42391 3.45227,4.75089 1.01351,1.32698 2.42374,3.50377 3.13383,4.83731 0.71008,1.33354 1.78415,3.03121 2.38682,3.77259 1.67828,2.06457 4.46904,7.02801 5.4548,9.70153 0.48651,1.3195 1.0767,2.77063 1.31152,3.22473 0.73658,1.42437 1.87354,5.3917 2.37948,8.3029 0.26744,1.53894 0.55438,3.1627 0.63762,3.60834 0.18184,0.97344 0.34389,1.0148 4.81701,1.22926 4.42582,0.2122 9.01076,1.06286 11.86276,2.20093 1.25967,0.50267 2.5187,0.91395 2.79782,0.91395 0.27913,0 2.23067,0.81151 4.33675,1.80335 2.10608,0.99184 4.49194,2.11224 5.30192,2.48977 0.80997,0.37753 2.66556,1.4624 4.1235,2.41081 1.45796,0.94841 3.64489,2.28249 4.85986,2.96463 1.21497,0.68214 3.99833,2.37533 6.18526,3.76265 2.18694,1.38732 4.83275,3.00248 5.8796,3.58925 1.86459,1.04514 4.62189,3.25868 7.29355,5.85525 1.49646,1.45438 2.24154,1.54581 2.3855,0.29268 z M 39.718201,169.43173 c 0.469663,-0.14906 1.425975,-0.27102 2.125148,-0.27102 0.992459,0 1.491889,-0.19376 2.277591,-0.88361 0.553498,-0.48598 1.343197,-0.88361 1.754862,-0.88361 0.411675,0 1.123149,-0.31075 1.581067,-0.69057 0.457918,-0.3798 1.495284,-0.93561 2.305254,-1.23511 0.809982,-0.29951 2.13539,-1.09888 2.94536,-1.77637 0.809982,-0.67749 2.06912,-1.52882 2.798105,-1.89182 0.728973,-0.36302 1.524227,-0.83022 1.767218,-1.03824 0.242991,-0.20802 0.920646,-0.50822 1.505904,-0.66712 0.585258,-0.15891 1.83283,-0.80166 2.772389,-1.42832 0.939559,-0.62669 2.183762,-1.38511 2.764879,-1.68541 0.581117,-0.3003 1.255387,-0.71538 1.498379,-0.92241 0.242991,-0.20702 0.773156,-0.47084 1.178152,-0.58625 0.404986,-0.11541 1.664124,-0.68701 2.798094,-1.27022 1.133959,-0.58321 2.790735,-1.16925 3.681703,-1.30231 3.341818,-0.49908 8.542694,-0.78029 9.476742,-0.51241 1.34814,0.38664 8.703597,0.002 9.962658,-0.52072 0.643958,-0.26744 2.360658,-0.46571 4.573884,-0.52824 1.94866,-0.0551 3.90395,-0.19069 4.34512,-0.30141 0.54533,-0.13688 1.22514,-0.002 2.1236,0.41986 0.72682,0.34165 1.4588,0.62118 1.62661,0.62118 0.74275,0 3.68021,1.22258 4.57231,1.90302 0.53923,0.4113 1.06954,0.74781 1.17847,0.74781 0.10887,0 0.59183,0.33136 1.07312,0.73634 1.23909,1.04262 2.00804,0.98063 2.00804,-0.16189 0,-1.92246 -2.35831,-5.26792 -6.69345,-9.49524 -1.86269,-1.81636 -4.4365,-4.32966 -5.71957,-5.58513 -1.28309,-1.25546 -2.427987,-2.2834 -2.544239,-2.28431 -0.116252,-8.8e-4 -0.998158,-0.76303 -1.959792,-1.69358 -0.961623,-0.93057 -2.154504,-1.99167 -2.650828,-2.358 -0.496312,-0.36634 -1.725283,-1.40654 -2.731045,-2.31158 -2.079395,-1.87116 -4.092009,-3.21445 -6.860179,-4.57875 -1.052962,-0.51895 -2.760245,-1.51757 -3.79397,-2.21914 -1.919605,-1.30284 -7.705094,-4.21495 -8.373798,-4.21495 -0.08249,0 -1.109067,-0.54346 -2.281231,-1.20768 -2.034555,-1.15291 -4.438061,-2.00425 -8.96664,-3.17607 -3.430452,-0.88766 -4.862928,-1.17641 -8.247026,-1.66235 -1.781935,-0.25587 -3.773887,-0.58466 -4.426539,-0.73065 -1.495518,-0.33451 -7.385425,-0.17259 -8.712636,0.23952 -0.549213,0.17053 -1.992621,0.46595 -3.207588,0.6565 -2.215997,0.34753 -3.427902,0.90812 -6.627073,3.06552 -0.809971,0.54622 -1.821899,1.33682 -2.248726,1.75689 -1.439634,1.41687 -3.340949,0.64517 -2.511164,-1.01921 0.349213,-0.70044 3.568601,-3.15904 4.193111,-3.20222 0.317053,-0.0219 1.332566,-1.03295 1.711123,-1.70357 0.283779,-0.5027 -1.890895,-1.43343 -4.712544,-2.01689 -1.994547,-0.41243 -2.705052,-0.42969 -5.031401,-0.12223 -1.489885,0.19692 -3.033326,0.2766 -3.429873,0.17707 -0.396547,-0.0995 -1.298213,0.0278 -2.003697,0.28309 -4.79205,1.73362 -6.7255148,1.67805 -7.1789356,-0.20634 -0.1731262,-0.71951 -0.1031945,-0.7817 1.0883946,-0.96861 0.700364,-0.10987 2.315774,-0.59974 3.589796,-1.08865 1.839477,-0.70592 2.718778,-0.87805 4.270768,-0.83611 1.074914,0.0291 2.750115,-0.0452 3.722691,-0.16492 1.972082,-0.24283 4.28583,0.0739 8.098658,1.10857 2.32695,0.63145 2.540964,0.75511 3.033793,1.75283 l 0.530243,1.07344 2.267862,-0.0872 c 1.247316,-0.048 2.864285,-0.31719 3.593269,-0.59831 1.525129,-0.58813 1.263169,-0.57181 5.301655,-0.33014 4.281143,0.25621 4.870286,0.33014 7.216139,0.90553 1.133958,0.27815 2.857004,0.61583 3.828969,0.7504 0.971975,0.13459 2.69501,0.45619 3.828969,0.71467 3.68224,0.83935 7.510686,1.42509 7.510686,1.1491 0,-0.0702 -0.347911,-0.81917 -0.773145,-1.66427 -1.159908,-2.30516 -10.466767,-11.43114 -12.227016,-11.98938 -0.706676,-0.22412 -1.616212,-0.6212 -2.021197,-0.8824 -1.154831,-0.744831 -2.317032,-1.182538 -3.139871,-1.182538 -0.415727,0 -1.90058,-0.277135 -3.299672,-0.615856 C 44.067339,98.313964 42.604995,98.1549 41.08747,98.224329 L 38.892612,98.32474 38.6676,97.293864 c -0.123767,-0.566983 -0.169152,-1.192065 -0.100857,-1.389071 0.143893,-0.41518 5.098093,-0.497232 5.592614,-0.09263 0.165623,0.135514 1.509766,0.39239 2.986994,0.570833 1.957443,0.236456 3.315368,0.609866 5.007111,1.376886 4.581509,2.077215 5.443644,2.589078 6.282903,3.730298 0.460534,0.62624 3.104248,3.45975 5.874904,6.29669 2.770653,2.83694 5.037546,5.3531 5.037546,5.59148 0,0.23837 -0.291928,0.82826 -0.648733,1.31087 -0.643101,0.86983 -0.643735,0.88228 -0.07358,1.43171 0.316307,0.30484 1.966794,1.23883 3.667743,2.07554 1.700949,0.83671 3.444433,1.7113 3.87441,1.94353 0.429988,0.23223 0.938479,0.42223 1.129996,0.42223 0.191516,0 0.900051,0.3772 1.57451,0.83821 2.633206,1.79987 5.993848,3.83471 7.117019,4.30931 0.647977,0.27379 1.575769,0.67006 2.061751,0.88059 1.1088,0.48033 7.074083,5.25065 9.425168,7.53712 1.655641,1.61017 2.855591,2.33974 3.848151,2.33974 0.47432,0 0.58165,-1.19341 0.14702,-1.63469 -0.1516,-0.15389 -0.69343,-1.12427 -1.20409,-2.1564 -0.510652,-1.03214 -1.347551,-2.31765 -1.859771,-2.85671 -0.512221,-0.53905 -1.660284,-2.06423 -2.551262,-3.38928 -2.025805,-3.0128 -4.184862,-5.67523 -5.164162,-6.36815 -0.412455,-0.29183 -1.705591,-1.50707 -2.873625,-2.7005 -5.704336,-5.8284 -5.899904,-5.99871 -8.037999,-6.99998 -1.166965,-0.5465 -2.536478,-1.07656 -3.043344,-1.17794 -0.506877,-0.10142 -0.992926,-0.29975 -1.080124,-0.44081 -0.08716,-0.14108 -0.527772,-0.2565 -0.979089,-0.2565 -1.178164,0 -1.854616,-0.8755 -1.741358,-2.25376 0.09061,-1.1028 0.120972,-1.13079 1.124017,-1.03663 0.566979,0.0532 1.610868,0.41772 2.319748,0.80998 0.708891,0.39226 1.61934,0.7132 2.023223,0.7132 1.233791,0 4.644773,2.24309 6.718346,4.41804 0.929863,0.97532 4.083704,4.15403 4.675708,4.71258 0.925756,0.87342 4.663798,5.16992 5.125078,5.89073 0.259177,0.40499 1.486979,1.99548 2.728451,3.53444 1.241483,1.53894 2.609763,3.4608 3.040613,4.27077 0.43087,0.80998 1.30586,2.3342 1.94443,3.38717 1.3598,2.24222 1.45386,3.04202 0.43622,3.70879 -0.40498,0.26537 -0.73633,0.72214 -0.73633,1.01507 0,0.72075 1.33439,2.2588 2.46501,2.84121 1.49405,0.76963 10.49459,10.08415 10.49459,10.86069 0,0.10019 0.57452,1.39651 1.27669,2.88061 0.70219,1.48409 1.439,3.1092 1.63737,3.61136 0.19836,0.50214 0.94459,1.48609 1.65829,2.18653 1.09726,1.07688 1.32777,1.19496 1.49286,0.76472 0.40605,-1.05813 -2.48463,-11.66846 -4.0113,-14.72357 -0.48167,-0.96391 -0.87576,-1.91198 -0.87576,-2.10683 0,-0.19484 -0.39762,-0.85461 -0.88361,-1.46614 -0.48599,-0.61153 -0.88361,-1.24683 -0.88361,-1.41177 0,-0.16493 -0.56948,-1.17391 -1.26551,-2.24216 -0.69605,-1.06824 -1.39188,-2.16186 -1.54633,-2.43025 -0.50326,-0.87461 -2.76585,-4.21325 -3.16242,-4.66641 -0.21264,-0.24299 -0.60772,-0.77315 -0.87796,-1.17814 -0.27023,-0.40499 -0.99284,-1.4276 -1.60578,-2.27247 -0.61293,-0.84487 -1.6638,-2.30817 -2.33525,-3.25177 -0.67144,-0.9436 -1.45093,-1.90662 -1.73219,-2.14005 -0.28127,-0.23343 -1.08368,-1.29309 -1.78314,-2.35481 -1.279251,-1.94179 -7.461019,-8.24504 -9.107065,-9.28603 -1.265028,-0.80003 -3.019021,-2.15007 -4.670799,-3.59508 -0.786994,-0.68847 -1.566129,-1.25178 -1.731418,-1.25178 -0.374127,0 -2.235912,-1.5123 -3.897921,-3.16626 -0.691837,-0.68848 -1.353962,-1.25178 -1.471405,-1.25178 -0.117433,0 -0.60661,-0.27991 -1.087082,-0.62203 -0.48046,-0.34212 -1.490029,-0.94982 -2.243493,-1.35044 -0.753464,-0.400617 -1.971314,-1.229721 -2.706343,-1.84245 -1.994012,-1.662248 -7.462236,-4.321541 -9.730687,-4.732204 -1.052976,-0.190621 -2.842281,-0.525637 -3.97625,-0.744481 -1.133959,-0.218844 -2.923263,-0.534329 -3.976236,-0.70108 -1.052972,-0.16675 -2.44465,-0.433649 -3.092637,-0.593108 -1.492345,-0.36725 -10.021558,-1.022375 -10.385132,-0.797678 -0.149604,0.09246 -1.717858,0.250393 -3.484998,0.350953 -1.76713,0.100556 -3.789495,0.308066 -4.494134,0.461124 -0.704649,0.153059 -1.726207,0.1948 -2.270132,0.09276 -0.543936,-0.102037 -1.624182,-0.04307 -2.400545,0.131038 -0.776362,0.174113 -2.064211,0.460606 -2.861891,0.636652 -0.79767,0.176045 -2.189347,0.821131 -3.092627,1.433521 -0.903279,0.61239 -1.973673,1.332623 -2.378659,1.600514 -2.505253,1.65718 -3.886611,2.680777 -4.203418,3.114751 -0.199042,0.272655 -1.015157,0.932105 -1.813595,1.465447 -5.3397148,3.566831 -8.2722283,8.032611 -9.7847556,14.900701 -0.9522829,4.32418 -1.6592258,9.51775 -1.4444434,10.61165 0.095402,0.48599 0.2897904,2.93801 0.4319248,5.44892 0.3408644,6.02147 1.3942044,10.09518 4.025005,15.56642 1.0402932,2.16349 1.8914412,4.0358 1.8914412,4.1607 0,0.12491 1.691152,1.99998 3.758113,4.16684 2.066972,2.16686 4.088224,4.3553 4.491684,4.8632 5.146396,6.47859 6.070815,7.31374 9.906385,8.94977 1.475001,0.62914 2.535778,0.87148 3.934045,0.89874 1.052962,0.0205 2.245831,0.14341 2.650827,0.27308 0.824365,0.26392 3.234516,0.095 4.535623,-0.31799 z m 4.491829,-13.28238 c -0.406477,-1.51794 -0.203261,-2.1989 0.984054,-3.29745 0.646473,-0.59813 1.378853,-1.48094 1.62751,-1.96179 0.248658,-0.48085 0.57957,-0.87426 0.735375,-0.87426 0.155804,0 0.620992,-0.53497 1.033747,-1.18883 0.412756,-0.65384 1.144256,-1.42829 1.62554,-1.72097 0.481285,-0.2927 2.13018,-1.70861 3.664204,-3.14648 1.534023,-1.43787 3.047686,-2.70996 3.363703,-2.82687 0.316029,-0.11689 1.136141,-0.61934 1.822489,-1.11652 1.768532,-1.28113 3.750978,-1.79341 7.557363,-1.95293 2.576031,-0.10798 3.502788,-0.0409 4.165192,0.30173 0.679491,0.35137 2.125626,0.4393 7.142834,0.43435 3.459963,-0.003 6.688467,-0.017 7.174449,-0.0302 0.848098,-0.0229 2.799085,-0.0143 5.301655,0.0237 1.439534,0.0218 3.847882,0.55934 4.908113,1.09543 0.431535,0.2182 1.558136,0.4827 2.503561,0.58778 2.468141,0.27431 3.848691,1.73123 2.612601,2.75709 -0.42957,0.35651 -1.999657,0.0633 -6.784371,-1.26672 -1.127435,-0.31341 -3.164395,-0.38458 -8.688825,-0.30359 -3.987891,0.0584 -9.126738,-0.0491 -11.486918,-0.24037 -2.348925,-0.19037 -5.657759,-0.3107 -7.352953,-0.26739 -3.259277,0.0833 -4.759136,0.57311 -6.932062,2.26393 -0.485983,0.37817 -1.450923,1.1225 -2.144296,1.65408 -0.693384,0.53156 -1.94837,1.59606 -2.788865,2.36554 -0.840494,0.76947 -1.64157,1.39905 -1.780176,1.39905 -0.543713,0 -3.844086,3.46092 -4.493966,4.71258 -0.952918,1.83528 -1.909052,2.88833 -2.81674,3.10222 -0.633605,0.1493 -0.802356,0.0602 -0.953218,-0.50316 z M 28.604597,141.86701 c -0.107981,-0.10798 -0.196359,-0.88286 -0.196359,-1.72192 0,-1.41283 0.09251,-1.613 1.251781,-2.70873 0.688475,-0.65073 1.649407,-1.74409 2.135389,-2.42969 0.485983,-0.68558 1.226567,-1.42495 1.645745,-1.64305 0.419179,-0.2181 1.938797,-1.59715 3.37694,-3.06455 1.438143,-1.4674 2.843535,-2.668 3.123084,-2.668 0.27956,0 0.580694,-0.11716 0.669183,-0.26034 0.256906,-0.41569 2.8194,-1.53915 4.522308,-1.98271 0.86002,-0.22401 2.529866,-0.93756 3.710769,-1.58568 1.180891,-0.64811 2.347366,-1.17838 2.59215,-1.17838 0.244783,0 0.829908,-0.1918 1.300283,-0.42619 1.142007,-0.5691 7.828181,-0.82694 9.249514,-0.35669 0.801132,0.26506 1.051648,0.52158 1.124073,1.15104 0.07125,0.61924 -0.03284,0.81111 -0.441799,0.81481 -4.484003,0.0405 -8.826261,0.36027 -9.474927,0.69764 -0.428875,0.22305 -1.508754,0.70219 -2.399732,1.06475 -0.890968,0.36255 -1.951299,0.82975 -2.356284,1.03822 -0.404996,0.20847 -1.13397,0.57692 -1.619952,0.81879 -0.485982,0.24185 -1.480044,0.74437 -2.209028,1.11668 -0.728974,0.37232 -1.656766,0.84614 -2.061751,1.0529 -0.404985,0.20678 -1.222269,0.58809 -1.816166,0.84736 -0.597247,0.26072 -1.410023,0.97035 -1.81866,1.58783 -0.406354,0.61405 -1.36083,1.63141 -2.121062,2.26081 -3.064607,2.53724 -4.575943,4.08407 -5.748018,5.88303 -1.129917,1.73428 -1.876802,2.25275 -2.437481,1.69207 z M 16.10791,137.30316 c -0.538604,-0.5386 -0.44102,-2.32724 0.182778,-3.35016 1.475323,-2.41926 6.852442,-6.911 8.273264,-6.911 0.663672,0 1.487992,0.74793 1.487992,1.35011 0,0.23343 -0.733605,0.89371 -1.630249,1.46729 -2.080308,1.33075 -5.410838,4.77687 -6.177716,6.39211 -0.616729,1.299 -1.469079,1.71865 -2.136069,1.05165 z"
       id="path34"
       inkscape:connector-curvature="0" />
  </g>
</svg>
